<svg width="360" height="800" viewBox="0 0 360 800" fill="none" xmlns="http://www.w3.org/2000/svg">
<rect width="360" height="800" fill="white"/>
<path d="M49.6564 120.48C49.9791 120.641 50.1624 120.891 50.2064 121.228C50.2651 121.565 50.1844 121.873 49.9644 122.152C49.8031 122.372 49.5904 122.497 49.3264 122.526C49.0771 122.555 48.8278 122.504 48.5784 122.372C48.1531 122.152 47.7058 121.976 47.2364 121.844C46.7671 121.712 46.2684 121.646 45.7404 121.646C44.9044 121.646 44.1491 121.785 43.4744 122.064C42.8144 122.328 42.2424 122.717 41.7584 123.23C41.2744 123.729 40.9004 124.323 40.6364 125.012C40.3871 125.701 40.2624 126.464 40.2624 127.3C40.2624 128.224 40.4018 129.045 40.6804 129.764C40.9591 130.468 41.3404 131.069 41.8244 131.568C42.3231 132.052 42.9024 132.419 43.5624 132.668C44.2371 132.903 44.9631 133.02 45.7404 133.02C46.2391 133.02 46.7231 132.961 47.1924 132.844C47.6764 132.727 48.1311 132.551 48.5564 132.316C48.8204 132.184 49.0771 132.14 49.3264 132.184C49.5904 132.213 49.8031 132.338 49.9644 132.558C50.2138 132.866 50.3018 133.181 50.2284 133.504C50.1698 133.812 49.9864 134.047 49.6784 134.208C49.3118 134.413 48.9084 134.589 48.4684 134.736C48.0284 134.883 47.5811 135 47.1264 135.088C46.6718 135.176 46.2098 135.22 45.7404 135.22C44.6844 135.22 43.6871 135.044 42.7484 134.692C41.8098 134.34 40.9738 133.827 40.2404 133.152C39.5071 132.477 38.9278 131.649 38.5024 130.666C38.0918 129.683 37.8864 128.561 37.8864 127.3C37.8864 126.171 38.0771 125.129 38.4584 124.176C38.8544 123.208 39.4044 122.379 40.1084 121.69C40.8271 120.986 41.6631 120.443 42.6164 120.062C43.5698 119.666 44.6111 119.468 45.7404 119.468C46.4444 119.468 47.1264 119.556 47.7864 119.732C48.4611 119.908 49.0844 120.157 49.6564 120.48ZM53.5668 135C53.2441 135 52.9801 134.897 52.7748 134.692C52.5694 134.472 52.4668 134.201 52.4668 133.878V124.55C52.4668 124.227 52.5694 123.963 52.7748 123.758C52.9801 123.538 53.2441 123.428 53.5668 123.428C53.8748 123.428 54.1314 123.538 54.3368 123.758C54.5568 123.963 54.6668 124.227 54.6668 124.55V127.014L54.4468 126.068C54.5641 125.657 54.7401 125.276 54.9748 124.924C55.2241 124.572 55.5174 124.264 55.8548 124C56.1921 123.736 56.5661 123.531 56.9768 123.384C57.4021 123.237 57.8421 123.164 58.2968 123.164C58.6781 123.164 59.0081 123.267 59.2868 123.472C59.5654 123.677 59.7048 123.934 59.7048 124.242C59.7048 124.638 59.6021 124.931 59.3968 125.122C59.1914 125.298 58.9641 125.386 58.7148 125.386C58.4948 125.386 58.2821 125.342 58.0768 125.254C57.8714 125.151 57.6294 125.1 57.3508 125.1C57.0428 125.1 56.7274 125.181 56.4048 125.342C56.0821 125.503 55.7888 125.745 55.5248 126.068C55.2608 126.376 55.0481 126.743 54.8868 127.168C54.7401 127.593 54.6668 128.07 54.6668 128.598V133.878C54.6668 134.201 54.5568 134.472 54.3368 134.692C54.1314 134.897 53.8748 135 53.5668 135ZM63.7301 133.878C63.7301 134.201 63.6274 134.472 63.4221 134.692C63.2167 134.897 62.9527 135 62.6301 135C62.3221 135 62.0581 134.897 61.8381 134.692C61.6327 134.472 61.5301 134.201 61.5301 133.878V124.462C61.5301 124.139 61.6327 123.875 61.8381 123.67C62.0581 123.45 62.3221 123.34 62.6301 123.34C62.9527 123.34 63.2167 123.45 63.4221 123.67C63.6274 123.875 63.7301 124.139 63.7301 124.462V133.878ZM62.6081 121.888C62.1827 121.888 61.8747 121.815 61.6841 121.668C61.4934 121.507 61.3981 121.243 61.3981 120.876V120.524C61.3981 120.157 61.5007 119.901 61.7061 119.754C61.9114 119.607 62.2194 119.534 62.6301 119.534C63.0701 119.534 63.3854 119.615 63.5761 119.776C63.7667 119.923 63.8621 120.172 63.8621 120.524V120.876C63.8621 121.257 63.7594 121.521 63.5541 121.668C63.3634 121.815 63.0481 121.888 62.6081 121.888ZM72.0794 135.22C70.8621 135.22 69.8061 134.971 68.9114 134.472C68.0167 133.959 67.3201 133.262 66.8214 132.382C66.3374 131.487 66.0954 130.468 66.0954 129.324C66.0954 128.033 66.3521 126.933 66.8654 126.024C67.3934 125.1 68.0754 124.396 68.9114 123.912C69.7474 123.413 70.6347 123.164 71.5734 123.164C72.2921 123.164 72.9741 123.311 73.6194 123.604C74.2647 123.883 74.8367 124.279 75.3354 124.792C75.8487 125.291 76.2521 125.885 76.5454 126.574C76.8387 127.249 76.9927 127.989 77.0074 128.796C76.9927 129.089 76.8754 129.331 76.6554 129.522C76.4354 129.713 76.1787 129.808 75.8854 129.808H67.3274L66.7994 127.938H75.0714L74.6534 128.334V127.784C74.6241 127.271 74.4554 126.823 74.1474 126.442C73.8394 126.046 73.4581 125.745 73.0034 125.54C72.5487 125.32 72.0721 125.21 71.5734 125.21C71.1334 125.21 70.7081 125.283 70.2974 125.43C69.9014 125.562 69.5421 125.782 69.2194 126.09C68.9114 126.398 68.6621 126.809 68.4714 127.322C68.2954 127.821 68.2074 128.444 68.2074 129.192C68.2074 129.999 68.3761 130.703 68.7134 131.304C69.0507 131.905 69.5054 132.375 70.0774 132.712C70.6494 133.035 71.2801 133.196 71.9694 133.196C72.5121 133.196 72.9594 133.145 73.3114 133.042C73.6634 132.925 73.9567 132.785 74.1914 132.624C74.4261 132.463 74.6314 132.309 74.8074 132.162C75.0274 132.03 75.2474 131.964 75.4674 131.964C75.7314 131.964 75.9514 132.059 76.1274 132.25C76.3034 132.426 76.3914 132.639 76.3914 132.888C76.3914 133.211 76.2301 133.504 75.9074 133.768C75.5114 134.149 74.9614 134.487 74.2574 134.78C73.5681 135.073 72.8421 135.22 72.0794 135.22ZM94.2411 123.428C94.5491 123.428 94.8058 123.538 95.0111 123.758C95.2311 123.963 95.3411 124.227 95.3411 124.55V130.336C95.3411 131.861 94.9158 133.057 94.0651 133.922C93.2145 134.773 92.0118 135.198 90.4571 135.198C88.9171 135.198 87.7218 134.773 86.8711 133.922C86.0351 133.057 85.6171 131.861 85.6171 130.336V124.55C85.6171 124.227 85.7198 123.963 85.9251 123.758C86.1305 123.538 86.3945 123.428 86.7171 123.428C87.0251 123.428 87.2818 123.538 87.4871 123.758C87.7071 123.963 87.8171 124.227 87.8171 124.55V130.336C87.8171 131.289 88.0371 132.001 88.4771 132.47C88.9318 132.939 89.5918 133.174 90.4571 133.174C91.3371 133.174 92.0045 132.939 92.4591 132.47C92.9138 132.001 93.1411 131.289 93.1411 130.336V124.55C93.1411 124.227 93.2438 123.963 93.4491 123.758C93.6545 123.538 93.9185 123.428 94.2411 123.428ZM104.208 123.23C105.294 123.23 106.13 123.501 106.716 124.044C107.303 124.572 107.692 125.291 107.882 126.2L107.53 126.09L107.684 125.738C107.875 125.357 108.161 124.975 108.542 124.594C108.938 124.198 109.408 123.875 109.95 123.626C110.493 123.362 111.072 123.23 111.688 123.23C112.7 123.23 113.485 123.45 114.042 123.89C114.6 124.315 114.988 124.895 115.208 125.628C115.428 126.347 115.538 127.153 115.538 128.048V133.878C115.538 134.201 115.436 134.472 115.23 134.692C115.025 134.897 114.761 135 114.438 135C114.13 135 113.866 134.897 113.646 134.692C113.441 134.472 113.338 134.201 113.338 133.878V128.07C113.338 127.557 113.265 127.087 113.118 126.662C112.986 126.237 112.744 125.899 112.392 125.65C112.055 125.386 111.586 125.254 110.984 125.254C110.412 125.254 109.899 125.386 109.444 125.65C109.004 125.899 108.66 126.237 108.41 126.662C108.161 127.087 108.036 127.557 108.036 128.07V133.878C108.036 134.201 107.934 134.472 107.728 134.692C107.523 134.897 107.259 135 106.936 135C106.614 135 106.35 134.897 106.144 134.692C105.939 134.472 105.836 134.201 105.836 133.878V128.048C105.836 127.535 105.763 127.065 105.616 126.64C105.484 126.215 105.25 125.877 104.912 125.628C104.575 125.379 104.106 125.254 103.504 125.254C102.932 125.254 102.426 125.379 101.986 125.628C101.546 125.877 101.202 126.215 100.952 126.64C100.718 127.065 100.6 127.535 100.6 128.048V133.878C100.6 134.201 100.49 134.472 100.27 134.692C100.065 134.897 99.8084 135 99.5004 135C99.1777 135 98.9137 134.897 98.7084 134.692C98.503 134.472 98.4004 134.201 98.4004 133.878V124.55C98.4004 124.227 98.503 123.963 98.7084 123.758C98.9137 123.538 99.1777 123.428 99.5004 123.428C99.8084 123.428 100.065 123.538 100.27 123.758C100.49 123.963 100.6 124.227 100.6 124.55V125.848L100.182 126.09C100.285 125.767 100.454 125.437 100.688 125.1C100.923 124.763 101.216 124.455 101.568 124.176C101.935 123.897 102.338 123.67 102.778 123.494C103.218 123.318 103.695 123.23 104.208 123.23ZM128.099 123.252C128.422 123.252 128.686 123.362 128.891 123.582C129.096 123.787 129.199 124.051 129.199 124.374V133.878C129.199 134.201 129.096 134.472 128.891 134.692C128.686 134.897 128.422 135 128.099 135C127.791 135 127.527 134.897 127.307 134.692C127.102 134.472 126.999 134.201 126.999 133.878V132.294L127.461 132.36C127.461 132.624 127.351 132.917 127.131 133.24C126.926 133.563 126.64 133.878 126.273 134.186C125.906 134.479 125.474 134.729 124.975 134.934C124.476 135.125 123.941 135.22 123.369 135.22C122.357 135.22 121.448 134.963 120.641 134.45C119.834 133.922 119.196 133.203 118.727 132.294C118.258 131.385 118.023 130.351 118.023 129.192C118.023 128.004 118.258 126.963 118.727 126.068C119.196 125.159 119.827 124.447 120.619 123.934C121.426 123.421 122.32 123.164 123.303 123.164C123.934 123.164 124.513 123.267 125.041 123.472C125.584 123.677 126.053 123.941 126.449 124.264C126.845 124.587 127.146 124.931 127.351 125.298C127.571 125.65 127.681 125.987 127.681 126.31L126.999 126.376V124.374C126.999 124.066 127.102 123.802 127.307 123.582C127.527 123.362 127.791 123.252 128.099 123.252ZM123.611 133.196C124.3 133.196 124.909 133.02 125.437 132.668C125.965 132.316 126.376 131.839 126.669 131.238C126.962 130.622 127.109 129.94 127.109 129.192C127.109 128.429 126.962 127.747 126.669 127.146C126.376 126.545 125.965 126.068 125.437 125.716C124.909 125.364 124.3 125.188 123.611 125.188C122.936 125.188 122.335 125.364 121.807 125.716C121.294 126.068 120.883 126.545 120.575 127.146C120.282 127.747 120.135 128.429 120.135 129.192C120.135 129.94 120.282 130.622 120.575 131.238C120.883 131.839 121.294 132.316 121.807 132.668C122.335 133.02 122.936 133.196 123.611 133.196ZM143.53 123.164C144.322 123.164 145.026 123.252 145.642 123.428C146.258 123.589 146.735 123.824 147.072 124.132C147.424 124.425 147.6 124.77 147.6 125.166C147.6 125.415 147.527 125.65 147.38 125.87C147.234 126.075 147.014 126.178 146.72 126.178C146.515 126.178 146.339 126.141 146.192 126.068C146.06 125.995 145.936 125.907 145.818 125.804C145.701 125.701 145.554 125.599 145.378 125.496C145.217 125.408 144.975 125.335 144.652 125.276C144.344 125.217 144.066 125.188 143.816 125.188C143.039 125.188 142.364 125.364 141.792 125.716C141.235 126.068 140.795 126.545 140.472 127.146C140.164 127.747 140.01 128.429 140.01 129.192C140.01 129.955 140.164 130.637 140.472 131.238C140.795 131.839 141.228 132.316 141.77 132.668C142.328 133.02 142.973 133.196 143.706 133.196C144.146 133.196 144.506 133.167 144.784 133.108C145.063 133.035 145.305 132.947 145.51 132.844C145.73 132.712 145.914 132.58 146.06 132.448C146.222 132.301 146.442 132.228 146.72 132.228C147.043 132.228 147.285 132.331 147.446 132.536C147.622 132.727 147.71 132.969 147.71 133.262C147.71 133.585 147.512 133.9 147.116 134.208C146.735 134.501 146.222 134.743 145.576 134.934C144.931 135.125 144.22 135.22 143.442 135.22C142.298 135.22 141.301 134.956 140.45 134.428C139.614 133.9 138.962 133.181 138.492 132.272C138.038 131.363 137.81 130.336 137.81 129.192C137.81 128.033 138.052 127.007 138.536 126.112C139.02 125.203 139.695 124.484 140.56 123.956C141.426 123.428 142.416 123.164 143.53 123.164ZM160.9 129.214C160.9 130.387 160.644 131.429 160.13 132.338C159.617 133.233 158.92 133.937 158.04 134.45C157.16 134.963 156.17 135.22 155.07 135.22C153.97 135.22 152.98 134.963 152.1 134.45C151.22 133.937 150.516 133.233 149.988 132.338C149.475 131.429 149.218 130.387 149.218 129.214C149.218 128.026 149.475 126.985 149.988 126.09C150.516 125.181 151.22 124.469 152.1 123.956C152.98 123.428 153.97 123.164 155.07 123.164C156.17 123.164 157.16 123.428 158.04 123.956C158.92 124.469 159.617 125.181 160.13 126.09C160.644 126.985 160.9 128.026 160.9 129.214ZM158.7 129.214C158.7 128.407 158.539 127.711 158.216 127.124C157.894 126.523 157.454 126.053 156.896 125.716C156.354 125.364 155.745 125.188 155.07 125.188C154.396 125.188 153.78 125.364 153.222 125.716C152.665 126.053 152.225 126.523 151.902 127.124C151.58 127.711 151.418 128.407 151.418 129.214C151.418 129.991 151.58 130.681 151.902 131.282C152.225 131.883 152.665 132.353 153.222 132.69C153.78 133.027 154.396 133.196 155.07 133.196C155.745 133.196 156.354 133.027 156.896 132.69C157.454 132.353 157.894 131.883 158.216 131.282C158.539 130.681 158.7 129.991 158.7 129.214ZM169.353 123.164C170.394 123.164 171.201 123.384 171.773 123.824C172.345 124.249 172.741 124.829 172.961 125.562C173.195 126.281 173.313 127.087 173.313 127.982V133.878C173.313 134.201 173.203 134.472 172.983 134.692C172.777 134.897 172.521 135 172.213 135C171.89 135 171.626 134.897 171.421 134.692C171.215 134.472 171.113 134.201 171.113 133.878V128.004C171.113 127.476 171.039 127.007 170.893 126.596C170.746 126.171 170.489 125.833 170.123 125.584C169.771 125.32 169.272 125.188 168.627 125.188C168.025 125.188 167.497 125.32 167.043 125.584C166.588 125.833 166.229 126.171 165.965 126.596C165.715 127.007 165.591 127.476 165.591 128.004V133.878C165.591 134.201 165.481 134.472 165.261 134.692C165.055 134.897 164.799 135 164.491 135C164.168 135 163.904 134.897 163.699 134.692C163.493 134.472 163.391 134.201 163.391 133.878V124.55C163.391 124.227 163.493 123.963 163.699 123.758C163.904 123.538 164.168 123.428 164.491 123.428C164.799 123.428 165.055 123.538 165.261 123.758C165.481 123.963 165.591 124.227 165.591 124.55V125.782L165.195 126.002C165.297 125.679 165.473 125.357 165.723 125.034C165.987 124.697 166.302 124.389 166.669 124.11C167.035 123.817 167.446 123.589 167.901 123.428C168.355 123.252 168.839 123.164 169.353 123.164ZM176.213 123.56H181.383C181.676 123.56 181.918 123.663 182.109 123.868C182.314 124.059 182.417 124.301 182.417 124.594C182.417 124.873 182.314 125.107 182.109 125.298C181.918 125.489 181.676 125.584 181.383 125.584H176.213C175.92 125.584 175.67 125.489 175.465 125.298C175.274 125.093 175.179 124.851 175.179 124.572C175.179 124.279 175.274 124.037 175.465 123.846C175.67 123.655 175.92 123.56 176.213 123.56ZM178.523 120.7C178.846 120.7 179.11 120.81 179.315 121.03C179.52 121.235 179.623 121.499 179.623 121.822V132.03C179.623 132.294 179.667 132.507 179.755 132.668C179.843 132.829 179.96 132.939 180.107 132.998C180.268 133.057 180.43 133.086 180.591 133.086C180.752 133.086 180.892 133.057 181.009 132.998C181.141 132.939 181.295 132.91 181.471 132.91C181.647 132.91 181.808 132.991 181.955 133.152C182.102 133.313 182.175 133.533 182.175 133.812C182.175 134.164 181.984 134.45 181.603 134.67C181.222 134.89 180.811 135 180.371 135C180.122 135 179.828 134.978 179.491 134.934C179.154 134.89 178.824 134.78 178.501 134.604C178.193 134.428 177.936 134.149 177.731 133.768C177.526 133.372 177.423 132.822 177.423 132.118V121.822C177.423 121.499 177.526 121.235 177.731 121.03C177.951 120.81 178.215 120.7 178.523 120.7ZM194.335 123.252C194.658 123.252 194.922 123.362 195.127 123.582C195.333 123.787 195.435 124.051 195.435 124.374V133.878C195.435 134.201 195.333 134.472 195.127 134.692C194.922 134.897 194.658 135 194.335 135C194.027 135 193.763 134.897 193.543 134.692C193.338 134.472 193.235 134.201 193.235 133.878V132.294L193.697 132.36C193.697 132.624 193.587 132.917 193.367 133.24C193.162 133.563 192.876 133.878 192.509 134.186C192.143 134.479 191.71 134.729 191.211 134.934C190.713 135.125 190.177 135.22 189.605 135.22C188.593 135.22 187.684 134.963 186.877 134.45C186.071 133.922 185.433 133.203 184.963 132.294C184.494 131.385 184.259 130.351 184.259 129.192C184.259 128.004 184.494 126.963 184.963 126.068C185.433 125.159 186.063 124.447 186.855 123.934C187.662 123.421 188.557 123.164 189.539 123.164C190.17 123.164 190.749 123.267 191.277 123.472C191.82 123.677 192.289 123.941 192.685 124.264C193.081 124.587 193.382 124.931 193.587 125.298C193.807 125.65 193.917 125.987 193.917 126.31L193.235 126.376V124.374C193.235 124.066 193.338 123.802 193.543 123.582C193.763 123.362 194.027 123.252 194.335 123.252ZM189.847 133.196C190.537 133.196 191.145 133.02 191.673 132.668C192.201 132.316 192.612 131.839 192.905 131.238C193.199 130.622 193.345 129.94 193.345 129.192C193.345 128.429 193.199 127.747 192.905 127.146C192.612 126.545 192.201 126.068 191.673 125.716C191.145 125.364 190.537 125.188 189.847 125.188C189.173 125.188 188.571 125.364 188.043 125.716C187.53 126.068 187.119 126.545 186.811 127.146C186.518 127.747 186.371 128.429 186.371 129.192C186.371 129.94 186.518 130.622 186.811 131.238C187.119 131.839 187.53 132.316 188.043 132.668C188.571 133.02 189.173 133.196 189.847 133.196ZM210.471 123.23C211.497 123.23 212.407 123.487 213.199 124C214.005 124.513 214.643 125.217 215.113 126.112C215.582 126.992 215.817 128.019 215.817 129.192C215.817 130.365 215.582 131.407 215.113 132.316C214.643 133.211 214.013 133.915 213.221 134.428C212.429 134.941 211.534 135.198 210.537 135.198C209.979 135.198 209.451 135.11 208.953 134.934C208.454 134.758 208.014 134.531 207.633 134.252C207.251 133.959 206.936 133.651 206.687 133.328C206.452 133.005 206.305 132.705 206.247 132.426L206.841 132.14V138.278C206.841 138.601 206.731 138.865 206.511 139.07C206.305 139.29 206.049 139.4 205.741 139.4C205.418 139.4 205.154 139.29 204.949 139.07C204.743 138.865 204.641 138.601 204.641 138.278V124.506C204.641 124.198 204.743 123.934 204.949 123.714C205.154 123.494 205.418 123.384 205.741 123.384C206.049 123.384 206.305 123.494 206.511 123.714C206.731 123.934 206.841 124.198 206.841 124.506V126.024L206.489 125.826C206.533 125.547 206.672 125.261 206.907 124.968C207.141 124.66 207.435 124.374 207.787 124.11C208.153 123.846 208.564 123.633 209.019 123.472C209.488 123.311 209.972 123.23 210.471 123.23ZM210.229 125.254C209.525 125.254 208.909 125.43 208.381 125.782C207.867 126.119 207.464 126.581 207.171 127.168C206.877 127.755 206.731 128.429 206.731 129.192C206.731 129.94 206.877 130.622 207.171 131.238C207.464 131.839 207.867 132.316 208.381 132.668C208.909 133.005 209.525 133.174 210.229 133.174C210.918 133.174 211.519 133.005 212.033 132.668C212.546 132.316 212.949 131.839 213.243 131.238C213.551 130.622 213.705 129.94 213.705 129.192C213.705 128.444 213.551 127.777 213.243 127.19C212.949 126.589 212.546 126.119 212.033 125.782C211.519 125.43 210.918 125.254 210.229 125.254ZM227.787 123.252C228.109 123.252 228.373 123.362 228.579 123.582C228.784 123.787 228.887 124.051 228.887 124.374V133.878C228.887 134.201 228.784 134.472 228.579 134.692C228.373 134.897 228.109 135 227.787 135C227.479 135 227.215 134.897 226.995 134.692C226.789 134.472 226.687 134.201 226.687 133.878V132.294L227.149 132.36C227.149 132.624 227.039 132.917 226.819 133.24C226.613 133.563 226.327 133.878 225.961 134.186C225.594 134.479 225.161 134.729 224.663 134.934C224.164 135.125 223.629 135.22 223.057 135.22C222.045 135.22 221.135 134.963 220.329 134.45C219.522 133.922 218.884 133.203 218.415 132.294C217.945 131.385 217.711 130.351 217.711 129.192C217.711 128.004 217.945 126.963 218.415 126.068C218.884 125.159 219.515 124.447 220.307 123.934C221.113 123.421 222.008 123.164 222.991 123.164C223.621 123.164 224.201 123.267 224.729 123.472C225.271 123.677 225.741 123.941 226.137 124.264C226.533 124.587 226.833 124.931 227.039 125.298C227.259 125.65 227.369 125.987 227.369 126.31L226.687 126.376V124.374C226.687 124.066 226.789 123.802 226.995 123.582C227.215 123.362 227.479 123.252 227.787 123.252ZM223.299 133.196C223.988 133.196 224.597 133.02 225.125 132.668C225.653 132.316 226.063 131.839 226.357 131.238C226.65 130.622 226.797 129.94 226.797 129.192C226.797 128.429 226.65 127.747 226.357 127.146C226.063 126.545 225.653 126.068 225.125 125.716C224.597 125.364 223.988 125.188 223.299 125.188C222.624 125.188 222.023 125.364 221.495 125.716C220.981 126.068 220.571 126.545 220.263 127.146C219.969 127.747 219.823 128.429 219.823 129.192C219.823 129.94 219.969 130.622 220.263 131.238C220.571 131.839 220.981 132.316 221.495 132.668C222.023 133.02 222.624 133.196 223.299 133.196ZM233.069 135C232.746 135 232.482 134.897 232.277 134.692C232.071 134.472 231.969 134.201 231.969 133.878V124.55C231.969 124.227 232.071 123.963 232.277 123.758C232.482 123.538 232.746 123.428 233.069 123.428C233.377 123.428 233.633 123.538 233.839 123.758C234.059 123.963 234.169 124.227 234.169 124.55V127.014L233.949 126.068C234.066 125.657 234.242 125.276 234.477 124.924C234.726 124.572 235.019 124.264 235.357 124C235.694 123.736 236.068 123.531 236.479 123.384C236.904 123.237 237.344 123.164 237.799 123.164C238.18 123.164 238.51 123.267 238.789 123.472C239.067 123.677 239.207 123.934 239.207 124.242C239.207 124.638 239.104 124.931 238.899 125.122C238.693 125.298 238.466 125.386 238.217 125.386C237.997 125.386 237.784 125.342 237.579 125.254C237.373 125.151 237.131 125.1 236.853 125.1C236.545 125.1 236.229 125.181 235.907 125.342C235.584 125.503 235.291 125.745 235.027 126.068C234.763 126.376 234.55 126.743 234.389 127.168C234.242 127.593 234.169 128.07 234.169 128.598V133.878C234.169 134.201 234.059 134.472 233.839 134.692C233.633 134.897 233.377 135 233.069 135ZM250.388 123.252C250.711 123.252 250.975 123.362 251.18 123.582C251.386 123.787 251.488 124.051 251.488 124.374V133.878C251.488 134.201 251.386 134.472 251.18 134.692C250.975 134.897 250.711 135 250.388 135C250.08 135 249.816 134.897 249.596 134.692C249.391 134.472 249.288 134.201 249.288 133.878V132.294L249.75 132.36C249.75 132.624 249.64 132.917 249.42 133.24C249.215 133.563 248.929 133.878 248.562 134.186C248.196 134.479 247.763 134.729 247.264 134.934C246.766 135.125 246.23 135.22 245.658 135.22C244.646 135.22 243.737 134.963 242.93 134.45C242.124 133.922 241.486 133.203 241.016 132.294C240.547 131.385 240.312 130.351 240.312 129.192C240.312 128.004 240.547 126.963 241.016 126.068C241.486 125.159 242.116 124.447 242.908 123.934C243.715 123.421 244.61 123.164 245.592 123.164C246.223 123.164 246.802 123.267 247.33 123.472C247.873 123.677 248.342 123.941 248.738 124.264C249.134 124.587 249.435 124.931 249.64 125.298C249.86 125.65 249.97 125.987 249.97 126.31L249.288 126.376V124.374C249.288 124.066 249.391 123.802 249.596 123.582C249.816 123.362 250.08 123.252 250.388 123.252ZM245.9 133.196C246.59 133.196 247.198 133.02 247.726 132.668C248.254 132.316 248.665 131.839 248.958 131.238C249.252 130.622 249.398 129.94 249.398 129.192C249.398 128.429 249.252 127.747 248.958 127.146C248.665 126.545 248.254 126.068 247.726 125.716C247.198 125.364 246.59 125.188 245.9 125.188C245.226 125.188 244.624 125.364 244.096 125.716C243.583 126.068 243.172 126.545 242.864 127.146C242.571 127.747 242.424 128.429 242.424 129.192C242.424 129.94 242.571 130.622 242.864 131.238C243.172 131.839 243.583 132.316 244.096 132.668C244.624 133.02 245.226 133.196 245.9 133.196ZM266.523 123.23C267.55 123.23 268.459 123.487 269.251 124C270.058 124.513 270.696 125.217 271.165 126.112C271.635 126.992 271.869 128.019 271.869 129.192C271.869 130.365 271.635 131.407 271.165 132.316C270.696 133.211 270.065 133.915 269.273 134.428C268.481 134.941 267.587 135.198 266.589 135.198C266.032 135.198 265.504 135.11 265.005 134.934C264.507 134.758 264.067 134.531 263.685 134.252C263.304 133.959 262.989 133.651 262.739 133.328C262.505 133.005 262.358 132.705 262.299 132.426L262.893 132.14V138.278C262.893 138.601 262.783 138.865 262.563 139.07C262.358 139.29 262.101 139.4 261.793 139.4C261.471 139.4 261.207 139.29 261.001 139.07C260.796 138.865 260.693 138.601 260.693 138.278V124.506C260.693 124.198 260.796 123.934 261.001 123.714C261.207 123.494 261.471 123.384 261.793 123.384C262.101 123.384 262.358 123.494 262.563 123.714C262.783 123.934 262.893 124.198 262.893 124.506V126.024L262.541 125.826C262.585 125.547 262.725 125.261 262.959 124.968C263.194 124.66 263.487 124.374 263.839 124.11C264.206 123.846 264.617 123.633 265.071 123.472C265.541 123.311 266.025 123.23 266.523 123.23ZM266.281 125.254C265.577 125.254 264.961 125.43 264.433 125.782C263.92 126.119 263.517 126.581 263.223 127.168C262.93 127.755 262.783 128.429 262.783 129.192C262.783 129.94 262.93 130.622 263.223 131.238C263.517 131.839 263.92 132.316 264.433 132.668C264.961 133.005 265.577 133.174 266.281 133.174C266.971 133.174 267.572 133.005 268.085 132.668C268.599 132.316 269.002 131.839 269.295 131.238C269.603 130.622 269.757 129.94 269.757 129.192C269.757 128.444 269.603 127.777 269.295 127.19C269.002 126.589 268.599 126.119 268.085 125.782C267.572 125.43 266.971 125.254 266.281 125.254ZM285.445 129.214C285.445 130.387 285.189 131.429 284.675 132.338C284.162 133.233 283.465 133.937 282.585 134.45C281.705 134.963 280.715 135.22 279.615 135.22C278.515 135.22 277.525 134.963 276.645 134.45C275.765 133.937 275.061 133.233 274.533 132.338C274.02 131.429 273.763 130.387 273.763 129.214C273.763 128.026 274.02 126.985 274.533 126.09C275.061 125.181 275.765 124.469 276.645 123.956C277.525 123.428 278.515 123.164 279.615 123.164C280.715 123.164 281.705 123.428 282.585 123.956C283.465 124.469 284.162 125.181 284.675 126.09C285.189 126.985 285.445 128.026 285.445 129.214ZM283.245 129.214C283.245 128.407 283.084 127.711 282.761 127.124C282.439 126.523 281.999 126.053 281.441 125.716C280.899 125.364 280.29 125.188 279.615 125.188C278.941 125.188 278.325 125.364 277.767 125.716C277.21 126.053 276.77 126.523 276.447 127.124C276.125 127.711 275.963 128.407 275.963 129.214C275.963 129.991 276.125 130.681 276.447 131.282C276.77 131.883 277.21 132.353 277.767 132.69C278.325 133.027 278.941 133.196 279.615 133.196C280.29 133.196 280.899 133.027 281.441 132.69C281.999 132.353 282.439 131.883 282.761 131.282C283.084 130.681 283.245 129.991 283.245 129.214ZM297.418 118.72C297.74 118.72 298.004 118.823 298.21 119.028C298.415 119.233 298.518 119.505 298.518 119.842V133.878C298.518 134.201 298.415 134.472 298.21 134.692C298.004 134.897 297.74 135 297.418 135C297.11 135 296.846 134.897 296.626 134.692C296.42 134.472 296.318 134.201 296.318 133.878V132.294L296.78 132.316C296.78 132.58 296.67 132.881 296.45 133.218C296.244 133.541 295.958 133.856 295.592 134.164C295.225 134.472 294.792 134.729 294.294 134.934C293.795 135.125 293.26 135.22 292.688 135.22C291.676 135.22 290.766 134.963 289.96 134.45C289.153 133.922 288.515 133.211 288.046 132.316C287.576 131.407 287.342 130.365 287.342 129.192C287.342 128.019 287.576 126.985 288.046 126.09C288.515 125.181 289.146 124.469 289.938 123.956C290.744 123.428 291.639 123.164 292.622 123.164C293.238 123.164 293.81 123.267 294.338 123.472C294.88 123.677 295.35 123.941 295.746 124.264C296.142 124.587 296.45 124.931 296.67 125.298C296.89 125.65 297 125.987 297 126.31L296.318 126.376V119.842C296.318 119.519 296.42 119.255 296.626 119.05C296.846 118.83 297.11 118.72 297.418 118.72ZM292.93 133.196C293.634 133.196 294.242 133.02 294.756 132.668C295.284 132.316 295.694 131.839 295.988 131.238C296.281 130.637 296.428 129.955 296.428 129.192C296.428 128.429 296.281 127.747 295.988 127.146C295.694 126.545 295.284 126.068 294.756 125.716C294.228 125.364 293.619 125.188 292.93 125.188C292.255 125.188 291.654 125.364 291.126 125.716C290.612 126.068 290.202 126.545 289.894 127.146C289.6 127.747 289.454 128.429 289.454 129.192C289.454 129.955 289.6 130.637 289.894 131.238C290.202 131.839 290.612 132.316 291.126 132.668C291.654 133.02 292.255 133.196 292.93 133.196ZM306.99 135.22C305.772 135.22 304.716 134.971 303.822 134.472C302.927 133.959 302.23 133.262 301.732 132.382C301.248 131.487 301.006 130.468 301.006 129.324C301.006 128.033 301.262 126.933 301.776 126.024C302.304 125.1 302.986 124.396 303.822 123.912C304.658 123.413 305.545 123.164 306.484 123.164C307.202 123.164 307.884 123.311 308.53 123.604C309.175 123.883 309.747 124.279 310.246 124.792C310.759 125.291 311.162 125.885 311.456 126.574C311.749 127.249 311.903 127.989 311.918 128.796C311.903 129.089 311.786 129.331 311.566 129.522C311.346 129.713 311.089 129.808 310.796 129.808H302.238L301.71 127.938H309.982L309.564 128.334V127.784C309.534 127.271 309.366 126.823 309.058 126.442C308.75 126.046 308.368 125.745 307.914 125.54C307.459 125.32 306.982 125.21 306.484 125.21C306.044 125.21 305.618 125.283 305.208 125.43C304.812 125.562 304.452 125.782 304.13 126.09C303.822 126.398 303.572 126.809 303.382 127.322C303.206 127.821 303.118 128.444 303.118 129.192C303.118 129.999 303.286 130.703 303.624 131.304C303.961 131.905 304.416 132.375 304.988 132.712C305.56 133.035 306.19 133.196 306.88 133.196C307.422 133.196 307.87 133.145 308.222 133.042C308.574 132.925 308.867 132.785 309.102 132.624C309.336 132.463 309.542 132.309 309.718 132.162C309.938 132.03 310.158 131.964 310.378 131.964C310.642 131.964 310.862 132.059 311.038 132.25C311.214 132.426 311.302 132.639 311.302 132.888C311.302 133.211 311.14 133.504 310.818 133.768C310.422 134.149 309.872 134.487 309.168 134.78C308.478 135.073 307.752 135.22 306.99 135.22ZM315.504 135C315.182 135 314.918 134.897 314.712 134.692C314.507 134.472 314.404 134.201 314.404 133.878V124.55C314.404 124.227 314.507 123.963 314.712 123.758C314.918 123.538 315.182 123.428 315.504 123.428C315.812 123.428 316.069 123.538 316.274 123.758C316.494 123.963 316.604 124.227 316.604 124.55V127.014L316.384 126.068C316.502 125.657 316.678 125.276 316.912 124.924C317.162 124.572 317.455 124.264 317.792 124C318.13 123.736 318.504 123.531 318.914 123.384C319.34 123.237 319.78 123.164 320.234 123.164C320.616 123.164 320.946 123.267 321.224 123.472C321.503 123.677 321.642 123.934 321.642 124.242C321.642 124.638 321.54 124.931 321.334 125.122C321.129 125.298 320.902 125.386 320.652 125.386C320.432 125.386 320.22 125.342 320.014 125.254C319.809 125.151 319.567 125.1 319.288 125.1C318.98 125.1 318.665 125.181 318.342 125.342C318.02 125.503 317.726 125.745 317.462 126.068C317.198 126.376 316.986 126.743 316.824 127.168C316.678 127.593 316.604 128.07 316.604 128.598V133.878C316.604 134.201 316.494 134.472 316.274 134.692C316.069 134.897 315.812 135 315.504 135ZM131.666 151.23C132.693 151.23 133.602 151.487 134.394 152C135.201 152.513 135.839 153.217 136.308 154.112C136.777 154.992 137.012 156.019 137.012 157.192C137.012 158.365 136.777 159.407 136.308 160.316C135.839 161.211 135.208 161.915 134.416 162.428C133.624 162.941 132.729 163.198 131.732 163.198C131.175 163.198 130.647 163.11 130.148 162.934C129.649 162.758 129.209 162.531 128.828 162.252C128.447 161.959 128.131 161.651 127.882 161.328C127.647 161.005 127.501 160.705 127.442 160.426L128.036 160.14V166.278C128.036 166.601 127.926 166.865 127.706 167.07C127.501 167.29 127.244 167.4 126.936 167.4C126.613 167.4 126.349 167.29 126.144 167.07C125.939 166.865 125.836 166.601 125.836 166.278V152.506C125.836 152.198 125.939 151.934 126.144 151.714C126.349 151.494 126.613 151.384 126.936 151.384C127.244 151.384 127.501 151.494 127.706 151.714C127.926 151.934 128.036 152.198 128.036 152.506V154.024L127.684 153.826C127.728 153.547 127.867 153.261 128.102 152.968C128.337 152.66 128.63 152.374 128.982 152.11C129.349 151.846 129.759 151.633 130.214 151.472C130.683 151.311 131.167 151.23 131.666 151.23ZM131.424 153.254C130.72 153.254 130.104 153.43 129.576 153.782C129.063 154.119 128.659 154.581 128.366 155.168C128.073 155.755 127.926 156.429 127.926 157.192C127.926 157.94 128.073 158.622 128.366 159.238C128.659 159.839 129.063 160.316 129.576 160.668C130.104 161.005 130.72 161.174 131.424 161.174C132.113 161.174 132.715 161.005 133.228 160.668C133.741 160.316 134.145 159.839 134.438 159.238C134.746 158.622 134.9 157.94 134.9 157.192C134.9 156.444 134.746 155.777 134.438 155.19C134.145 154.589 133.741 154.119 133.228 153.782C132.715 153.43 132.113 153.254 131.424 153.254ZM140.6 163C140.277 163 140.013 162.897 139.808 162.692C139.603 162.472 139.5 162.201 139.5 161.878V152.55C139.5 152.227 139.603 151.963 139.808 151.758C140.013 151.538 140.277 151.428 140.6 151.428C140.908 151.428 141.165 151.538 141.37 151.758C141.59 151.963 141.7 152.227 141.7 152.55V155.014L141.48 154.068C141.597 153.657 141.773 153.276 142.008 152.924C142.257 152.572 142.551 152.264 142.888 152C143.225 151.736 143.599 151.531 144.01 151.384C144.435 151.237 144.875 151.164 145.33 151.164C145.711 151.164 146.041 151.267 146.32 151.472C146.599 151.677 146.738 151.934 146.738 152.242C146.738 152.638 146.635 152.931 146.43 153.122C146.225 153.298 145.997 153.386 145.748 153.386C145.528 153.386 145.315 153.342 145.11 153.254C144.905 153.151 144.663 153.1 144.384 153.1C144.076 153.1 143.761 153.181 143.438 153.342C143.115 153.503 142.822 153.745 142.558 154.068C142.294 154.376 142.081 154.743 141.92 155.168C141.773 155.593 141.7 156.07 141.7 156.598V161.878C141.7 162.201 141.59 162.472 141.37 162.692C141.165 162.897 140.908 163 140.6 163ZM159.289 157.214C159.289 158.387 159.032 159.429 158.519 160.338C158.006 161.233 157.309 161.937 156.429 162.45C155.549 162.963 154.559 163.22 153.459 163.22C152.359 163.22 151.369 162.963 150.489 162.45C149.609 161.937 148.905 161.233 148.377 160.338C147.864 159.429 147.607 158.387 147.607 157.214C147.607 156.026 147.864 154.985 148.377 154.09C148.905 153.181 149.609 152.469 150.489 151.956C151.369 151.428 152.359 151.164 153.459 151.164C154.559 151.164 155.549 151.428 156.429 151.956C157.309 152.469 158.006 153.181 158.519 154.09C159.032 154.985 159.289 156.026 159.289 157.214ZM157.089 157.214C157.089 156.407 156.928 155.711 156.605 155.124C156.282 154.523 155.842 154.053 155.285 153.716C154.742 153.364 154.134 153.188 153.459 153.188C152.784 153.188 152.168 153.364 151.611 153.716C151.054 154.053 150.614 154.523 150.291 155.124C149.968 155.711 149.807 156.407 149.807 157.214C149.807 157.991 149.968 158.681 150.291 159.282C150.614 159.883 151.054 160.353 151.611 160.69C152.168 161.027 152.784 161.196 153.459 161.196C154.134 161.196 154.742 161.027 155.285 160.69C155.842 160.353 156.282 159.883 156.605 159.282C156.928 158.681 157.089 157.991 157.089 157.214ZM161.097 161.196C160.965 160.991 160.907 160.756 160.921 160.492C160.936 160.213 161.09 159.979 161.383 159.788C161.589 159.656 161.801 159.605 162.021 159.634C162.256 159.649 162.476 159.759 162.681 159.964C163.092 160.419 163.547 160.778 164.045 161.042C164.559 161.306 165.175 161.438 165.893 161.438C166.187 161.423 166.487 161.379 166.795 161.306C167.103 161.218 167.367 161.071 167.587 160.866C167.807 160.646 167.917 160.331 167.917 159.92C167.917 159.553 167.8 159.26 167.565 159.04C167.331 158.82 167.023 158.644 166.641 158.512C166.26 158.365 165.849 158.233 165.409 158.116C164.94 157.984 164.463 157.837 163.979 157.676C163.51 157.515 163.085 157.309 162.703 157.06C162.322 156.796 162.007 156.459 161.757 156.048C161.523 155.637 161.405 155.131 161.405 154.53C161.405 153.841 161.596 153.247 161.977 152.748C162.373 152.249 162.879 151.861 163.495 151.582C164.126 151.303 164.808 151.164 165.541 151.164C165.967 151.164 166.414 151.223 166.883 151.34C167.353 151.443 167.807 151.611 168.247 151.846C168.687 152.081 169.069 152.389 169.391 152.77C169.538 152.961 169.619 153.188 169.633 153.452C169.663 153.716 169.545 153.951 169.281 154.156C169.105 154.303 168.893 154.369 168.643 154.354C168.394 154.339 168.189 154.259 168.027 154.112C167.749 153.76 167.389 153.489 166.949 153.298C166.509 153.093 166.011 152.99 165.453 152.99C165.175 152.99 164.881 153.034 164.573 153.122C164.28 153.195 164.031 153.335 163.825 153.54C163.62 153.745 163.517 154.046 163.517 154.442C163.517 154.809 163.635 155.102 163.869 155.322C164.119 155.542 164.441 155.725 164.837 155.872C165.233 156.019 165.666 156.151 166.135 156.268C166.59 156.385 167.037 156.525 167.477 156.686C167.932 156.847 168.335 157.06 168.687 157.324C169.054 157.573 169.347 157.903 169.567 158.314C169.802 158.71 169.919 159.216 169.919 159.832C169.919 160.551 169.707 161.167 169.281 161.68C168.871 162.179 168.343 162.56 167.697 162.824C167.067 163.088 166.399 163.22 165.695 163.22C164.859 163.22 164.023 163.073 163.187 162.78C162.366 162.472 161.669 161.944 161.097 161.196ZM171.603 161.196C171.471 160.991 171.412 160.756 171.427 160.492C171.442 160.213 171.596 159.979 171.889 159.788C172.094 159.656 172.307 159.605 172.527 159.634C172.762 159.649 172.982 159.759 173.187 159.964C173.598 160.419 174.052 160.778 174.551 161.042C175.064 161.306 175.68 161.438 176.399 161.438C176.692 161.423 176.993 161.379 177.301 161.306C177.609 161.218 177.873 161.071 178.093 160.866C178.313 160.646 178.423 160.331 178.423 159.92C178.423 159.553 178.306 159.26 178.071 159.04C177.836 158.82 177.528 158.644 177.147 158.512C176.766 158.365 176.355 158.233 175.915 158.116C175.446 157.984 174.969 157.837 174.485 157.676C174.016 157.515 173.59 157.309 173.209 157.06C172.828 156.796 172.512 156.459 172.263 156.048C172.028 155.637 171.911 155.131 171.911 154.53C171.911 153.841 172.102 153.247 172.483 152.748C172.879 152.249 173.385 151.861 174.001 151.582C174.632 151.303 175.314 151.164 176.047 151.164C176.472 151.164 176.92 151.223 177.389 151.34C177.858 151.443 178.313 151.611 178.753 151.846C179.193 152.081 179.574 152.389 179.897 152.77C180.044 152.961 180.124 153.188 180.139 153.452C180.168 153.716 180.051 153.951 179.787 154.156C179.611 154.303 179.398 154.369 179.149 154.354C178.9 154.339 178.694 154.259 178.533 154.112C178.254 153.76 177.895 153.489 177.455 153.298C177.015 153.093 176.516 152.99 175.959 152.99C175.68 152.99 175.387 153.034 175.079 153.122C174.786 153.195 174.536 153.335 174.331 153.54C174.126 153.745 174.023 154.046 174.023 154.442C174.023 154.809 174.14 155.102 174.375 155.322C174.624 155.542 174.947 155.725 175.343 155.872C175.739 156.019 176.172 156.151 176.641 156.268C177.096 156.385 177.543 156.525 177.983 156.686C178.438 156.847 178.841 157.06 179.193 157.324C179.56 157.573 179.853 157.903 180.073 158.314C180.308 158.71 180.425 159.216 180.425 159.832C180.425 160.551 180.212 161.167 179.787 161.68C179.376 162.179 178.848 162.56 178.203 162.824C177.572 163.088 176.905 163.22 176.201 163.22C175.365 163.22 174.529 163.073 173.693 162.78C172.872 162.472 172.175 161.944 171.603 161.196ZM188.181 163.22C186.964 163.22 185.908 162.971 185.013 162.472C184.118 161.959 183.422 161.262 182.923 160.382C182.439 159.487 182.197 158.468 182.197 157.324C182.197 156.033 182.454 154.933 182.967 154.024C183.495 153.1 184.177 152.396 185.013 151.912C185.849 151.413 186.736 151.164 187.675 151.164C188.394 151.164 189.076 151.311 189.721 151.604C190.366 151.883 190.938 152.279 191.437 152.792C191.95 153.291 192.354 153.885 192.647 154.574C192.94 155.249 193.094 155.989 193.109 156.796C193.094 157.089 192.977 157.331 192.757 157.522C192.537 157.713 192.28 157.808 191.987 157.808H183.429L182.901 155.938H191.173L190.755 156.334V155.784C190.726 155.271 190.557 154.823 190.249 154.442C189.941 154.046 189.56 153.745 189.105 153.54C188.65 153.32 188.174 153.21 187.675 153.21C187.235 153.21 186.81 153.283 186.399 153.43C186.003 153.562 185.644 153.782 185.321 154.09C185.013 154.398 184.764 154.809 184.573 155.322C184.397 155.821 184.309 156.444 184.309 157.192C184.309 157.999 184.478 158.703 184.815 159.304C185.152 159.905 185.607 160.375 186.179 160.712C186.751 161.035 187.382 161.196 188.071 161.196C188.614 161.196 189.061 161.145 189.413 161.042C189.765 160.925 190.058 160.785 190.293 160.624C190.528 160.463 190.733 160.309 190.909 160.162C191.129 160.03 191.349 159.964 191.569 159.964C191.833 159.964 192.053 160.059 192.229 160.25C192.405 160.426 192.493 160.639 192.493 160.888C192.493 161.211 192.332 161.504 192.009 161.768C191.613 162.149 191.063 162.487 190.359 162.78C189.67 163.073 188.944 163.22 188.181 163.22ZM200.306 151.164C200.937 151.164 201.516 151.267 202.044 151.472C202.572 151.677 203.027 151.941 203.408 152.264C203.804 152.572 204.112 152.895 204.332 153.232C204.552 153.569 204.662 153.863 204.662 154.112L204.156 154.134V152.374C204.156 152.066 204.259 151.802 204.464 151.582C204.67 151.362 204.934 151.252 205.256 151.252C205.579 151.252 205.843 151.362 206.048 151.582C206.254 151.787 206.356 152.051 206.356 152.374V162.076C206.356 163.323 206.092 164.335 205.564 165.112C205.036 165.904 204.332 166.483 203.452 166.85C202.587 167.217 201.634 167.4 200.592 167.4C200.226 167.4 199.793 167.349 199.294 167.246C198.796 167.158 198.334 167.048 197.908 166.916C197.498 166.784 197.212 166.652 197.05 166.52C196.713 166.344 196.486 166.139 196.368 165.904C196.266 165.669 196.266 165.435 196.368 165.2C196.515 164.877 196.713 164.679 196.962 164.606C197.212 164.533 197.498 164.555 197.82 164.672C197.967 164.716 198.194 164.797 198.502 164.914C198.81 165.031 199.155 165.134 199.536 165.222C199.918 165.325 200.277 165.376 200.614 165.376C201.788 165.376 202.668 165.105 203.254 164.562C203.856 164.019 204.156 163.279 204.156 162.34V160.36L204.398 160.514C204.354 160.822 204.215 161.137 203.98 161.46C203.76 161.768 203.467 162.054 203.1 162.318C202.734 162.582 202.308 162.802 201.824 162.978C201.355 163.139 200.871 163.22 200.372 163.22C199.331 163.22 198.4 162.963 197.578 162.45C196.757 161.922 196.104 161.211 195.62 160.316C195.136 159.407 194.894 158.365 194.894 157.192C194.894 156.019 195.136 154.985 195.62 154.09C196.104 153.181 196.75 152.469 197.556 151.956C198.378 151.428 199.294 151.164 200.306 151.164ZM200.636 153.188C199.918 153.188 199.287 153.364 198.744 153.716C198.202 154.068 197.776 154.545 197.468 155.146C197.16 155.747 197.006 156.429 197.006 157.192C197.006 157.955 197.16 158.637 197.468 159.238C197.776 159.839 198.202 160.316 198.744 160.668C199.287 161.02 199.918 161.196 200.636 161.196C201.355 161.196 201.986 161.027 202.528 160.69C203.071 160.338 203.496 159.861 203.804 159.26C204.112 158.644 204.266 157.955 204.266 157.192C204.266 156.429 204.112 155.747 203.804 155.146C203.496 154.53 203.071 154.053 202.528 153.716C201.986 153.364 201.355 153.188 200.636 153.188ZM217.862 151.428C218.17 151.428 218.427 151.538 218.632 151.758C218.852 151.963 218.962 152.227 218.962 152.55V158.336C218.962 159.861 218.537 161.057 217.686 161.922C216.836 162.773 215.633 163.198 214.078 163.198C212.538 163.198 211.343 162.773 210.492 161.922C209.656 161.057 209.238 159.861 209.238 158.336V152.55C209.238 152.227 209.341 151.963 209.546 151.758C209.752 151.538 210.016 151.428 210.338 151.428C210.646 151.428 210.903 151.538 211.108 151.758C211.328 151.963 211.438 152.227 211.438 152.55V158.336C211.438 159.289 211.658 160.001 212.098 160.47C212.553 160.939 213.213 161.174 214.078 161.174C214.958 161.174 215.626 160.939 216.08 160.47C216.535 160.001 216.762 159.289 216.762 158.336V152.55C216.762 152.227 216.865 151.963 217.07 151.758C217.276 151.538 217.54 151.428 217.862 151.428ZM224.089 161.878C224.089 162.201 223.987 162.472 223.781 162.692C223.576 162.897 223.312 163 222.989 163C222.681 163 222.417 162.897 222.197 162.692C221.992 162.472 221.889 162.201 221.889 161.878V152.462C221.889 152.139 221.992 151.875 222.197 151.67C222.417 151.45 222.681 151.34 222.989 151.34C223.312 151.34 223.576 151.45 223.781 151.67C223.987 151.875 224.089 152.139 224.089 152.462V161.878ZM222.967 149.888C222.542 149.888 222.234 149.815 222.043 149.668C221.853 149.507 221.757 149.243 221.757 148.876V148.524C221.757 148.157 221.86 147.901 222.065 147.754C222.271 147.607 222.579 147.534 222.989 147.534C223.429 147.534 223.745 147.615 223.935 147.776C224.126 147.923 224.221 148.172 224.221 148.524V148.876C224.221 149.257 224.119 149.521 223.913 149.668C223.723 149.815 223.407 149.888 222.967 149.888ZM228.149 163C227.826 163 227.562 162.897 227.357 162.692C227.151 162.472 227.049 162.201 227.049 161.878V152.55C227.049 152.227 227.151 151.963 227.357 151.758C227.562 151.538 227.826 151.428 228.149 151.428C228.457 151.428 228.713 151.538 228.919 151.758C229.139 151.963 229.249 152.227 229.249 152.55V155.014L229.029 154.068C229.146 153.657 229.322 153.276 229.557 152.924C229.806 152.572 230.099 152.264 230.437 152C230.774 151.736 231.148 151.531 231.559 151.384C231.984 151.237 232.424 151.164 232.879 151.164C233.26 151.164 233.59 151.267 233.869 151.472C234.147 151.677 234.287 151.934 234.287 152.242C234.287 152.638 234.184 152.931 233.979 153.122C233.773 153.298 233.546 153.386 233.297 153.386C233.077 153.386 232.864 153.342 232.659 153.254C232.453 153.151 232.211 153.1 231.933 153.1C231.625 153.1 231.309 153.181 230.987 153.342C230.664 153.503 230.371 153.745 230.107 154.068C229.843 154.376 229.63 154.743 229.469 155.168C229.322 155.593 229.249 156.07 229.249 156.598V161.878C229.249 162.201 229.139 162.472 228.919 162.692C228.713 162.897 228.457 163 228.149 163Z" fill="#111111"/>
<rect x="50" y="486" width="259" height="49" rx="8" fill="#FFD803"/>
<path d="M122.19 502.684C122.641 502.909 122.901 503.265 122.97 503.75C123.057 504.235 122.935 504.677 122.606 505.076C122.381 505.388 122.086 505.561 121.722 505.596C121.375 505.631 121.02 505.561 120.656 505.388C120.24 505.197 119.798 505.05 119.33 504.946C118.879 504.842 118.403 504.79 117.9 504.79C116.964 504.79 116.123 504.937 115.378 505.232C114.65 505.527 114.026 505.951 113.506 506.506C112.986 507.043 112.587 507.685 112.31 508.43C112.05 509.175 111.92 509.999 111.92 510.9C111.92 511.957 112.067 512.876 112.362 513.656C112.674 514.436 113.099 515.086 113.636 515.606C114.173 516.126 114.806 516.516 115.534 516.776C116.262 517.019 117.051 517.14 117.9 517.14C118.368 517.14 118.836 517.097 119.304 517.01C119.772 516.923 120.223 516.767 120.656 516.542C121.02 516.369 121.375 516.308 121.722 516.36C122.086 516.412 122.389 516.594 122.632 516.906C122.979 517.339 123.1 517.79 122.996 518.258C122.909 518.709 122.649 519.038 122.216 519.246C121.765 519.471 121.297 519.662 120.812 519.818C120.344 519.957 119.867 520.061 119.382 520.13C118.897 520.217 118.403 520.26 117.9 520.26C116.652 520.26 115.465 520.061 114.338 519.662C113.229 519.263 112.232 518.674 111.348 517.894C110.481 517.114 109.797 516.143 109.294 514.982C108.791 513.803 108.54 512.443 108.54 510.9C108.54 509.565 108.765 508.335 109.216 507.208C109.684 506.081 110.334 505.111 111.166 504.296C112.015 503.464 113.012 502.823 114.156 502.372C115.3 501.904 116.548 501.67 117.9 501.67C118.663 501.67 119.408 501.757 120.136 501.93C120.864 502.103 121.549 502.355 122.19 502.684ZM127.051 520C126.6 520 126.227 519.853 125.933 519.558C125.638 519.246 125.491 518.865 125.491 518.414V507.676C125.491 507.225 125.638 506.853 125.933 506.558C126.227 506.246 126.6 506.09 127.051 506.09C127.501 506.09 127.874 506.246 128.169 506.558C128.463 506.853 128.611 507.225 128.611 507.676V510.12L128.429 508.378C128.619 507.962 128.862 507.598 129.157 507.286C129.469 506.957 129.815 506.688 130.197 506.48C130.578 506.255 130.985 506.09 131.419 505.986C131.852 505.882 132.285 505.83 132.719 505.83C133.239 505.83 133.672 505.977 134.019 506.272C134.383 506.567 134.565 506.913 134.565 507.312C134.565 507.884 134.417 508.3 134.123 508.56C133.828 508.803 133.507 508.924 133.161 508.924C132.831 508.924 132.528 508.863 132.251 508.742C131.991 508.621 131.687 508.56 131.341 508.56C131.029 508.56 130.708 508.638 130.379 508.794C130.067 508.933 129.772 509.158 129.495 509.47C129.235 509.782 129.018 510.172 128.845 510.64C128.689 511.091 128.611 511.628 128.611 512.252V518.414C128.611 518.865 128.463 519.246 128.169 519.558C127.874 519.853 127.501 520 127.051 520ZM139.702 518.414C139.702 518.865 139.555 519.246 139.26 519.558C138.966 519.853 138.593 520 138.142 520C137.692 520 137.319 519.853 137.024 519.558C136.73 519.246 136.582 518.865 136.582 518.414V507.676C136.582 507.225 136.73 506.853 137.024 506.558C137.319 506.246 137.692 506.09 138.142 506.09C138.593 506.09 138.966 506.246 139.26 506.558C139.555 506.853 139.702 507.225 139.702 507.676V518.414ZM138.116 504.4C137.527 504.4 137.111 504.305 136.868 504.114C136.626 503.923 136.504 503.585 136.504 503.1V502.606C136.504 502.103 136.634 501.765 136.894 501.592C137.172 501.401 137.588 501.306 138.142 501.306C138.749 501.306 139.174 501.401 139.416 501.592C139.659 501.783 139.78 502.121 139.78 502.606V503.1C139.78 503.603 139.65 503.949 139.39 504.14C139.13 504.313 138.706 504.4 138.116 504.4ZM154.297 505.83C154.747 505.83 155.12 505.977 155.415 506.272C155.709 506.567 155.857 506.948 155.857 507.416V518.414C155.857 518.865 155.709 519.246 155.415 519.558C155.12 519.853 154.747 520 154.297 520C153.846 520 153.473 519.853 153.179 519.558C152.884 519.246 152.737 518.865 152.737 518.414V517.14L153.309 517.374C153.309 517.599 153.187 517.877 152.945 518.206C152.702 518.518 152.373 518.83 151.957 519.142C151.541 519.454 151.047 519.723 150.475 519.948C149.92 520.156 149.313 520.26 148.655 520.26C147.459 520.26 146.375 519.957 145.405 519.35C144.434 518.726 143.663 517.877 143.091 516.802C142.536 515.71 142.259 514.462 142.259 513.058C142.259 511.637 142.536 510.389 143.091 509.314C143.663 508.222 144.425 507.373 145.379 506.766C146.332 506.142 147.389 505.83 148.551 505.83C149.296 505.83 149.981 505.943 150.605 506.168C151.229 506.393 151.766 506.679 152.217 507.026C152.685 507.373 153.04 507.728 153.283 508.092C153.543 508.439 153.673 508.733 153.673 508.976L152.737 509.314V507.416C152.737 506.965 152.884 506.593 153.179 506.298C153.473 505.986 153.846 505.83 154.297 505.83ZM149.045 517.4C149.807 517.4 150.475 517.209 151.047 516.828C151.619 516.447 152.061 515.927 152.373 515.268C152.702 514.609 152.867 513.873 152.867 513.058C152.867 512.226 152.702 511.481 152.373 510.822C152.061 510.163 151.619 509.643 151.047 509.262C150.475 508.881 149.807 508.69 149.045 508.69C148.299 508.69 147.641 508.881 147.069 509.262C146.497 509.643 146.046 510.163 145.717 510.822C145.405 511.481 145.249 512.226 145.249 513.058C145.249 513.873 145.405 514.609 145.717 515.268C146.046 515.927 146.497 516.447 147.069 516.828C147.641 517.209 148.299 517.4 149.045 517.4ZM160.795 520C160.344 520 159.972 519.853 159.677 519.558C159.382 519.246 159.235 518.865 159.235 518.414V507.676C159.235 507.225 159.382 506.853 159.677 506.558C159.972 506.246 160.344 506.09 160.795 506.09C161.246 506.09 161.618 506.246 161.913 506.558C162.208 506.853 162.355 507.225 162.355 507.676V510.12L162.173 508.378C162.364 507.962 162.606 507.598 162.901 507.286C163.213 506.957 163.56 506.688 163.941 506.48C164.322 506.255 164.73 506.09 165.163 505.986C165.596 505.882 166.03 505.83 166.463 505.83C166.983 505.83 167.416 505.977 167.763 506.272C168.127 506.567 168.309 506.913 168.309 507.312C168.309 507.884 168.162 508.3 167.867 508.56C167.572 508.803 167.252 508.924 166.905 508.924C166.576 508.924 166.272 508.863 165.995 508.742C165.735 508.621 165.432 508.56 165.085 508.56C164.773 508.56 164.452 508.638 164.123 508.794C163.811 508.933 163.516 509.158 163.239 509.47C162.979 509.782 162.762 510.172 162.589 510.64C162.433 511.091 162.355 511.628 162.355 512.252V518.414C162.355 518.865 162.208 519.246 161.913 519.558C161.618 519.853 161.246 520 160.795 520ZM190.795 502.684C191.246 502.909 191.506 503.265 191.575 503.75C191.662 504.235 191.541 504.677 191.211 505.076C190.986 505.388 190.691 505.561 190.327 505.596C189.981 505.631 189.625 505.561 189.261 505.388C188.845 505.197 188.403 505.05 187.935 504.946C187.485 504.842 187.008 504.79 186.505 504.79C185.569 504.79 184.729 504.937 183.983 505.232C183.255 505.527 182.631 505.951 182.111 506.506C181.591 507.043 181.193 507.685 180.915 508.43C180.655 509.175 180.525 509.999 180.525 510.9C180.525 511.957 180.673 512.876 180.967 513.656C181.279 514.436 181.704 515.086 182.241 515.606C182.779 516.126 183.411 516.516 184.139 516.776C184.867 517.019 185.656 517.14 186.505 517.14C186.973 517.14 187.441 517.097 187.909 517.01C188.377 516.923 188.828 516.767 189.261 516.542C189.625 516.369 189.981 516.308 190.327 516.36C190.691 516.412 190.995 516.594 191.237 516.906C191.584 517.339 191.705 517.79 191.601 518.258C191.515 518.709 191.255 519.038 190.821 519.246C190.371 519.471 189.903 519.662 189.417 519.818C188.949 519.957 188.473 520.061 187.987 520.13C187.502 520.217 187.008 520.26 186.505 520.26C185.257 520.26 184.07 520.061 182.943 519.662C181.834 519.263 180.837 518.674 179.953 517.894C179.087 517.114 178.402 516.143 177.899 514.982C177.397 513.803 177.145 512.443 177.145 510.9C177.145 509.565 177.371 508.335 177.821 507.208C178.289 506.081 178.939 505.111 179.771 504.296C180.621 503.464 181.617 502.823 182.761 502.372C183.905 501.904 185.153 501.67 186.505 501.67C187.268 501.67 188.013 501.757 188.741 501.93C189.469 502.103 190.154 502.355 190.795 502.684ZM207.59 513.058C207.59 514.479 207.27 515.736 206.628 516.828C206.004 517.903 205.155 518.743 204.08 519.35C203.023 519.957 201.836 520.26 200.518 520.26C199.201 520.26 198.005 519.957 196.93 519.35C195.873 518.743 195.024 517.903 194.382 516.828C193.758 515.736 193.446 514.479 193.446 513.058C193.446 511.637 193.758 510.389 194.382 509.314C195.024 508.222 195.873 507.373 196.93 506.766C198.005 506.142 199.201 505.83 200.518 505.83C201.836 505.83 203.023 506.142 204.08 506.766C205.155 507.373 206.004 508.222 206.628 509.314C207.27 510.389 207.59 511.637 207.59 513.058ZM204.47 513.058C204.47 512.174 204.288 511.411 203.924 510.77C203.578 510.111 203.101 509.6 202.494 509.236C201.905 508.872 201.246 508.69 200.518 508.69C199.79 508.69 199.123 508.872 198.516 509.236C197.927 509.6 197.45 510.111 197.086 510.77C196.74 511.411 196.566 512.174 196.566 513.058C196.566 513.925 196.74 514.687 197.086 515.346C197.45 515.987 197.927 516.49 198.516 516.854C199.123 517.218 199.79 517.4 200.518 517.4C201.246 517.4 201.905 517.218 202.494 516.854C203.101 516.49 203.578 515.987 203.924 515.346C204.288 514.687 204.47 513.925 204.47 513.058ZM217.757 505.83C219.04 505.83 220.01 506.099 220.669 506.636C221.345 507.173 221.804 507.893 222.047 508.794C222.307 509.678 222.437 510.666 222.437 511.758V518.414C222.437 518.865 222.29 519.246 221.995 519.558C221.7 519.853 221.328 520 220.877 520C220.426 520 220.054 519.853 219.759 519.558C219.464 519.246 219.317 518.865 219.317 518.414V511.758C219.317 511.186 219.239 510.675 219.083 510.224C218.944 509.756 218.684 509.383 218.303 509.106C217.922 508.829 217.376 508.69 216.665 508.69C215.972 508.69 215.382 508.829 214.897 509.106C214.429 509.383 214.065 509.756 213.805 510.224C213.562 510.675 213.441 511.186 213.441 511.758V518.414C213.441 518.865 213.294 519.246 212.999 519.558C212.704 519.853 212.332 520 211.881 520C211.43 520 211.058 519.853 210.763 519.558C210.468 519.246 210.321 518.865 210.321 518.414V507.676C210.321 507.225 210.468 506.853 210.763 506.558C211.058 506.246 211.43 506.09 211.881 506.09C212.332 506.09 212.704 506.246 212.999 506.558C213.294 506.853 213.441 507.225 213.441 507.676V508.794L213.051 508.716C213.207 508.421 213.432 508.109 213.727 507.78C214.022 507.433 214.368 507.113 214.767 506.818C215.166 506.523 215.616 506.289 216.119 506.116C216.622 505.925 217.168 505.83 217.757 505.83ZM225.965 506.35H232.127C232.543 506.35 232.89 506.489 233.167 506.766C233.444 507.043 233.583 507.39 233.583 507.806C233.583 508.205 233.444 508.543 233.167 508.82C232.89 509.08 232.543 509.21 232.127 509.21H225.965C225.549 509.21 225.202 509.071 224.925 508.794C224.648 508.517 224.509 508.17 224.509 507.754C224.509 507.355 224.648 507.026 224.925 506.766C225.202 506.489 225.549 506.35 225.965 506.35ZM228.747 503.1C229.198 503.1 229.562 503.256 229.839 503.568C230.134 503.863 230.281 504.235 230.281 504.686V516.256C230.281 516.499 230.324 516.698 230.411 516.854C230.515 517.01 230.645 517.123 230.801 517.192C230.974 517.261 231.156 517.296 231.347 517.296C231.555 517.296 231.746 517.261 231.919 517.192C232.092 517.105 232.292 517.062 232.517 517.062C232.76 517.062 232.976 517.175 233.167 517.4C233.375 517.625 233.479 517.937 233.479 518.336C233.479 518.821 233.21 519.22 232.673 519.532C232.153 519.844 231.59 520 230.983 520C230.619 520 230.212 519.974 229.761 519.922C229.328 519.853 228.912 519.705 228.513 519.48C228.132 519.237 227.811 518.873 227.551 518.388C227.291 517.903 227.161 517.235 227.161 516.386V504.686C227.161 504.235 227.308 503.863 227.603 503.568C227.915 503.256 228.296 503.1 228.747 503.1ZM247.836 505.83C248.286 505.83 248.659 505.977 248.954 506.272C249.248 506.567 249.396 506.948 249.396 507.416V518.414C249.396 518.865 249.248 519.246 248.954 519.558C248.659 519.853 248.286 520 247.836 520C247.385 520 247.012 519.853 246.718 519.558C246.423 519.246 246.276 518.865 246.276 518.414V517.14L246.848 517.374C246.848 517.599 246.726 517.877 246.484 518.206C246.241 518.518 245.912 518.83 245.496 519.142C245.08 519.454 244.586 519.723 244.014 519.948C243.459 520.156 242.852 520.26 242.194 520.26C240.998 520.26 239.914 519.957 238.944 519.35C237.973 518.726 237.202 517.877 236.63 516.802C236.075 515.71 235.798 514.462 235.798 513.058C235.798 511.637 236.075 510.389 236.63 509.314C237.202 508.222 237.964 507.373 238.918 506.766C239.871 506.142 240.928 505.83 242.09 505.83C242.835 505.83 243.52 505.943 244.144 506.168C244.768 506.393 245.305 506.679 245.756 507.026C246.224 507.373 246.579 507.728 246.822 508.092C247.082 508.439 247.212 508.733 247.212 508.976L246.276 509.314V507.416C246.276 506.965 246.423 506.593 246.718 506.298C247.012 505.986 247.385 505.83 247.836 505.83ZM242.584 517.4C243.346 517.4 244.014 517.209 244.586 516.828C245.158 516.447 245.6 515.927 245.912 515.268C246.241 514.609 246.406 513.873 246.406 513.058C246.406 512.226 246.241 511.481 245.912 510.822C245.6 510.163 245.158 509.643 244.586 509.262C244.014 508.881 243.346 508.69 242.584 508.69C241.838 508.69 241.18 508.881 240.608 509.262C240.036 509.643 239.585 510.163 239.256 510.822C238.944 511.481 238.788 512.226 238.788 513.058C238.788 513.873 238.944 514.609 239.256 515.268C239.585 515.927 240.036 516.447 240.608 516.828C241.18 517.209 241.838 517.4 242.584 517.4Z" fill="#272343"/>
<path opacity="0.5" d="M62.246 228.2C62.3767 228.2 62.4793 228.242 62.554 228.326C62.6287 228.401 62.666 228.499 62.666 228.62V234.416C62.666 235.107 62.5027 235.732 62.176 236.292C61.8493 236.852 61.4107 237.3 60.86 237.636C60.3093 237.963 59.6887 238.126 58.998 238.126C58.3073 238.126 57.682 237.963 57.122 237.636C56.5713 237.3 56.1327 236.852 55.806 236.292C55.4793 235.732 55.316 235.107 55.316 234.416V228.62C55.316 228.499 55.3533 228.401 55.428 228.326C55.512 228.242 55.624 228.2 55.764 228.2C55.876 228.2 55.974 228.242 56.058 228.326C56.142 228.401 56.184 228.499 56.184 228.62V234.416C56.184 234.957 56.31 235.443 56.562 235.872C56.8233 236.301 57.1687 236.647 57.598 236.908C58.0273 237.16 58.494 237.286 58.998 237.286C59.5207 237.286 59.9967 237.16 60.426 236.908C60.8553 236.647 61.196 236.301 61.448 235.872C61.7093 235.443 61.84 234.957 61.84 234.416V228.62C61.84 228.499 61.8773 228.401 61.952 228.326C62.0267 228.242 62.1247 228.2 62.246 228.2ZM64.6805 236.866C64.6058 236.754 64.5685 236.647 64.5685 236.544C64.5778 236.432 64.6385 236.343 64.7505 236.278C64.8251 236.213 64.9091 236.185 65.0025 236.194C65.1051 236.203 65.1985 236.25 65.2825 236.334C65.5345 236.661 65.8378 236.927 66.1925 237.132C66.5565 237.328 66.9858 237.426 67.4805 237.426C67.7418 237.426 67.9985 237.384 68.2505 237.3C68.5118 237.207 68.7265 237.071 68.8945 236.894C69.0625 236.707 69.1465 236.474 69.1465 236.194C69.1465 235.905 69.0625 235.671 68.8945 235.494C68.7265 235.317 68.5071 235.177 68.2365 235.074C67.9751 234.971 67.6951 234.883 67.3965 234.808C67.0791 234.724 66.7711 234.631 66.4725 234.528C66.1738 234.416 65.9078 234.281 65.6745 234.122C65.4505 233.954 65.2685 233.753 65.1285 233.52C64.9885 233.287 64.9185 233.002 64.9185 232.666C64.9185 232.274 65.0258 231.929 65.2405 231.63C65.4551 231.331 65.7445 231.098 66.1085 230.93C66.4818 230.762 66.9018 230.678 67.3685 230.678C67.6018 230.678 67.8538 230.711 68.1245 230.776C68.3951 230.832 68.6611 230.93 68.9225 231.07C69.1838 231.21 69.4171 231.401 69.6225 231.644C69.7065 231.728 69.7485 231.826 69.7485 231.938C69.7485 232.041 69.7018 232.134 69.6085 232.218C69.5338 232.274 69.4451 232.302 69.3425 232.302C69.2491 232.302 69.1698 232.265 69.1045 232.19C68.8805 231.938 68.6145 231.747 68.3065 231.616C67.9985 231.485 67.6671 231.42 67.3125 231.42C67.0418 231.42 66.7851 231.467 66.5425 231.56C66.3091 231.644 66.1131 231.775 65.9545 231.952C65.7958 232.129 65.7165 232.363 65.7165 232.652C65.7351 232.923 65.8285 233.142 65.9965 233.31C66.1738 233.478 66.4025 233.618 66.6825 233.73C66.9718 233.842 67.2938 233.945 67.6485 234.038C67.9471 234.113 68.2318 234.201 68.5025 234.304C68.7825 234.407 69.0251 234.537 69.2305 234.696C69.4451 234.845 69.6131 235.037 69.7345 235.27C69.8651 235.503 69.9305 235.797 69.9305 236.152C69.9305 236.563 69.8138 236.917 69.5805 237.216C69.3565 237.515 69.0531 237.743 68.6705 237.902C68.2878 238.061 67.8631 238.14 67.3965 238.14C66.8925 238.14 66.4025 238.042 65.9265 237.846C65.4598 237.65 65.0445 237.323 64.6805 236.866ZM76.997 230.888C77.1183 230.888 77.2163 230.93 77.291 231.014C77.375 231.098 77.417 231.196 77.417 231.308V235.256C77.417 236.18 77.1556 236.885 76.633 237.37C76.1103 237.855 75.4056 238.098 74.519 238.098C73.6416 238.098 72.9416 237.855 72.419 237.37C71.9056 236.885 71.649 236.18 71.649 235.256V231.308C71.649 231.196 71.6863 231.098 71.761 231.014C71.845 230.93 71.9476 230.888 72.069 230.888C72.1903 230.888 72.2883 230.93 72.363 231.014C72.447 231.098 72.489 231.196 72.489 231.308V235.256C72.489 235.928 72.6663 236.441 73.021 236.796C73.385 237.141 73.8843 237.314 74.519 237.314C75.163 237.314 75.667 237.141 76.031 236.796C76.395 236.441 76.577 235.928 76.577 235.256V231.308C76.577 231.196 76.6143 231.098 76.689 231.014C76.7636 230.93 76.8663 230.888 76.997 230.888ZM85.4857 230.846C85.607 230.846 85.705 230.888 85.7797 230.972C85.8637 231.056 85.9057 231.159 85.9057 231.28V237.58C85.9057 237.692 85.8637 237.79 85.7797 237.874C85.6957 237.958 85.5977 238 85.4857 238C85.3643 238 85.2617 237.958 85.1777 237.874C85.103 237.79 85.0657 237.692 85.0657 237.58V235.914L85.3037 235.802C85.3037 236.063 85.229 236.329 85.0797 236.6C84.9397 236.871 84.7437 237.123 84.4917 237.356C84.2397 237.589 83.941 237.781 83.5957 237.93C83.2597 238.07 82.8957 238.14 82.5037 238.14C81.869 238.14 81.2997 237.977 80.7957 237.65C80.301 237.323 79.909 236.875 79.6197 236.306C79.3397 235.737 79.1997 235.097 79.1997 234.388C79.1997 233.66 79.3443 233.021 79.6337 232.47C79.923 231.91 80.315 231.471 80.8097 231.154C81.3043 230.837 81.8643 230.678 82.4897 230.678C82.891 230.678 83.2643 230.748 83.6097 230.888C83.9643 231.028 84.2723 231.219 84.5337 231.462C84.795 231.705 84.9957 231.985 85.1357 232.302C85.285 232.61 85.3597 232.932 85.3597 233.268L85.0657 233.058V231.28C85.0657 231.159 85.103 231.056 85.1777 230.972C85.2617 230.888 85.3643 230.846 85.4857 230.846ZM82.5737 237.356C83.0683 237.356 83.507 237.23 83.8897 236.978C84.2723 236.717 84.571 236.362 84.7857 235.914C85.0097 235.457 85.1217 234.948 85.1217 234.388C85.1217 233.837 85.0097 233.343 84.7857 232.904C84.571 232.465 84.2723 232.115 83.8897 231.854C83.507 231.593 83.0683 231.462 82.5737 231.462C82.0883 231.462 81.6497 231.588 81.2577 231.84C80.875 232.092 80.5717 232.437 80.3477 232.876C80.133 233.315 80.0257 233.819 80.0257 234.388C80.0257 234.948 80.133 235.457 80.3477 235.914C80.5717 236.362 80.875 236.717 81.2577 236.978C81.6403 237.23 82.079 237.356 82.5737 237.356ZM82.4757 230.272C82.429 230.272 82.3777 230.249 82.3217 230.202C82.275 230.146 82.2517 230.085 82.2517 230.02C82.2517 229.964 82.275 229.899 82.3217 229.824L83.1757 228.494C83.2223 228.419 83.283 228.349 83.3577 228.284C83.4417 228.219 83.5397 228.186 83.6517 228.186C83.7917 228.186 83.9037 228.223 83.9877 228.298C84.0717 228.373 84.109 228.48 84.0997 228.62C84.0997 228.685 84.0857 228.746 84.0577 228.802C84.039 228.849 84.0063 228.895 83.9597 228.942L82.9097 230.048C82.8537 230.113 82.7883 230.169 82.7137 230.216C82.639 230.253 82.5597 230.272 82.4757 230.272ZM88.5299 238C88.3992 238 88.2966 237.958 88.2219 237.874C88.1472 237.79 88.1099 237.692 88.1099 237.58V231.308C88.1099 231.196 88.1472 231.098 88.2219 231.014C88.3059 230.93 88.4086 230.888 88.5299 230.888C88.6512 230.888 88.7492 230.93 88.8239 231.014C88.9079 231.098 88.9499 231.196 88.9499 231.308V233.408L88.7399 233.45C88.7679 233.123 88.8472 232.801 88.9779 232.484C89.1179 232.157 89.3046 231.859 89.5379 231.588C89.7712 231.317 90.0466 231.098 90.3639 230.93C90.6906 230.762 91.0546 230.678 91.4559 230.678C91.6239 230.678 91.7872 230.715 91.9459 230.79C92.1046 230.855 92.1839 230.967 92.1839 231.126C92.1839 231.266 92.1466 231.373 92.0719 231.448C91.9972 231.523 91.9086 231.56 91.8059 231.56C91.7219 231.56 91.6286 231.537 91.5259 231.49C91.4326 231.443 91.3066 231.42 91.1479 231.42C90.8866 231.42 90.6252 231.499 90.3639 231.658C90.1026 231.807 89.8646 232.013 89.6499 232.274C89.4352 232.535 89.2626 232.829 89.1319 233.156C89.0106 233.473 88.9499 233.795 88.9499 234.122V237.58C88.9499 237.692 88.9079 237.79 88.8239 237.874C88.7399 237.958 88.6419 238 88.5299 238ZM94.3086 237.58C94.3086 237.692 94.2666 237.79 94.1826 237.874C94.0986 237.958 94.0006 238 93.8886 238C93.7673 238 93.6646 237.958 93.5806 237.874C93.506 237.79 93.4686 237.692 93.4686 237.58V231.14C93.4686 231.028 93.506 230.93 93.5806 230.846C93.6646 230.762 93.7673 230.72 93.8886 230.72C94.01 230.72 94.108 230.762 94.1826 230.846C94.2666 230.93 94.3086 231.028 94.3086 231.14V237.58ZM93.8886 229.782C93.6926 229.782 93.5433 229.74 93.4406 229.656C93.3473 229.563 93.3006 229.432 93.3006 229.264V229.124C93.3006 228.956 93.352 228.83 93.4546 228.746C93.5666 228.653 93.716 228.606 93.9026 228.606C94.08 228.606 94.2153 228.653 94.3086 228.746C94.4113 228.83 94.4626 228.956 94.4626 229.124V229.264C94.4626 229.432 94.4113 229.563 94.3086 229.656C94.2153 229.74 94.0753 229.782 93.8886 229.782ZM103.155 234.416C103.155 235.125 103.001 235.765 102.693 236.334C102.385 236.894 101.965 237.337 101.433 237.664C100.901 237.981 100.294 238.14 99.6128 238.14C98.9501 238.14 98.3481 237.981 97.8068 237.664C97.2748 237.337 96.8501 236.894 96.5328 236.334C96.2248 235.765 96.0708 235.125 96.0708 234.416C96.0708 233.697 96.2248 233.058 96.5328 232.498C96.8501 231.938 97.2748 231.495 97.8068 231.168C98.3481 230.841 98.9501 230.678 99.6128 230.678C100.294 230.678 100.901 230.841 101.433 231.168C101.965 231.495 102.385 231.938 102.693 232.498C103.001 233.058 103.155 233.697 103.155 234.416ZM102.315 234.416C102.315 233.847 102.198 233.343 101.965 232.904C101.731 232.456 101.409 232.106 100.999 231.854C100.597 231.593 100.135 231.462 99.6128 231.462C99.1088 231.462 98.6514 231.593 98.2408 231.854C97.8301 232.106 97.5034 232.456 97.2608 232.904C97.0274 233.343 96.9108 233.847 96.9108 234.416C96.9108 234.985 97.0274 235.489 97.2608 235.928C97.5034 236.367 97.8301 236.717 98.2408 236.978C98.6514 237.23 99.1088 237.356 99.6128 237.356C100.135 237.356 100.597 237.23 100.999 236.978C101.409 236.717 101.731 236.367 101.965 235.928C102.198 235.489 102.315 234.985 102.315 234.416Z" fill="#272343"/>
<path opacity="0.5" d="M60.018 315.14C59.3087 315.149 58.6927 315.037 58.17 314.804C57.6473 314.571 57.148 314.221 56.672 313.754C56.6253 313.717 56.5833 313.67 56.546 313.614C56.518 313.558 56.504 313.493 56.504 313.418C56.504 313.306 56.546 313.203 56.63 313.11C56.7233 313.017 56.826 312.97 56.938 312.97C57.05 312.97 57.1527 313.017 57.246 313.11C57.61 313.502 58.0207 313.801 58.478 314.006C58.9447 314.211 59.444 314.314 59.976 314.314C60.424 314.314 60.8207 314.244 61.166 314.104C61.5207 313.964 61.8007 313.763 62.006 313.502C62.2113 313.241 62.314 312.937 62.314 312.592C62.314 312.163 62.1973 311.817 61.964 311.556C61.7307 311.285 61.4227 311.066 61.04 310.898C60.6573 310.721 60.2327 310.562 59.766 310.422C59.3833 310.31 59.0193 310.184 58.674 310.044C58.3287 309.895 58.0207 309.717 57.75 309.512C57.4793 309.297 57.2693 309.036 57.12 308.728C56.9707 308.42 56.896 308.047 56.896 307.608C56.896 307.113 57.0267 306.675 57.288 306.292C57.5493 305.909 57.918 305.611 58.394 305.396C58.8793 305.172 59.4393 305.06 60.074 305.06C60.6247 305.06 61.152 305.153 61.656 305.34C62.1693 305.527 62.5753 305.802 62.874 306.166C63.014 306.315 63.084 306.451 63.084 306.572C63.084 306.665 63.0373 306.759 62.944 306.852C62.8507 306.945 62.748 306.992 62.636 306.992C62.5427 306.992 62.4633 306.959 62.398 306.894C62.2393 306.698 62.0387 306.525 61.796 306.376C61.5533 306.217 61.2827 306.096 60.984 306.012C60.6947 305.928 60.3913 305.886 60.074 305.886C59.6353 305.886 59.2387 305.956 58.884 306.096C58.5387 306.227 58.2633 306.418 58.058 306.67C57.862 306.922 57.764 307.225 57.764 307.58C57.764 307.972 57.876 308.294 58.1 308.546C58.324 308.798 58.618 309.008 58.982 309.176C59.346 309.335 59.7333 309.484 60.144 309.624C60.5453 309.736 60.928 309.867 61.292 310.016C61.6653 310.156 61.992 310.333 62.272 310.548C62.5613 310.763 62.7853 311.033 62.944 311.36C63.112 311.687 63.196 312.097 63.196 312.592C63.196 313.068 63.0607 313.497 62.79 313.88C62.5193 314.263 62.146 314.566 61.67 314.79C61.2033 315.014 60.6527 315.131 60.018 315.14ZM68.2013 315.14C67.4827 315.14 66.848 314.986 66.2973 314.678C65.7467 314.37 65.3173 313.941 65.0093 313.39C64.7013 312.839 64.5473 312.195 64.5473 311.458C64.5473 310.665 64.7013 309.988 65.0093 309.428C65.3267 308.868 65.7327 308.439 66.2273 308.14C66.7313 307.832 67.2633 307.678 67.8233 307.678C68.234 307.678 68.6307 307.753 69.0133 307.902C69.4053 308.042 69.7507 308.257 70.0493 308.546C70.3573 308.826 70.6 309.171 70.7773 309.582C70.964 309.993 71.0667 310.469 71.0853 311.01C71.076 311.122 71.0293 311.22 70.9453 311.304C70.8613 311.379 70.7633 311.416 70.6513 311.416H65.0373L64.8693 310.66H70.3853L70.2033 310.828V310.548C70.166 310.109 70.026 309.736 69.7833 309.428C69.5407 309.12 69.2467 308.887 68.9013 308.728C68.556 308.569 68.1967 308.49 67.8233 308.49C67.5433 308.49 67.254 308.546 66.9553 308.658C66.666 308.77 66.4 308.947 66.1573 309.19C65.924 309.423 65.7327 309.727 65.5833 310.1C65.434 310.464 65.3593 310.898 65.3593 311.402C65.3593 311.953 65.4713 312.452 65.6953 312.9C65.9193 313.348 66.2413 313.703 66.6613 313.964C67.0907 314.225 67.5993 314.356 68.1873 314.356C68.514 314.356 68.808 314.309 69.0693 314.216C69.3307 314.123 69.5593 314.001 69.7553 313.852C69.9513 313.693 70.1147 313.53 70.2453 313.362C70.348 313.278 70.4507 313.236 70.5533 313.236C70.6467 313.236 70.726 313.273 70.7913 313.348C70.866 313.423 70.9033 313.507 70.9033 313.6C70.9033 313.712 70.8567 313.81 70.7633 313.894C70.4833 314.23 70.1193 314.524 69.6713 314.776C69.2233 315.019 68.7333 315.14 68.2013 315.14ZM76.2573 307.678C76.8733 307.678 77.3633 307.804 77.7273 308.056C78.1007 308.299 78.3667 308.635 78.5253 309.064C78.6933 309.484 78.7773 309.951 78.7773 310.464V314.58C78.7773 314.692 78.7353 314.79 78.6513 314.874C78.5673 314.958 78.4693 315 78.3573 315C78.2267 315 78.124 314.958 78.0493 314.874C77.9747 314.79 77.9373 314.692 77.9373 314.58V310.506C77.9373 310.133 77.8767 309.792 77.7553 309.484C77.634 309.176 77.4333 308.929 77.1533 308.742C76.8827 308.555 76.5233 308.462 76.0753 308.462C75.674 308.462 75.2913 308.555 74.9273 308.742C74.5727 308.929 74.2833 309.176 74.0593 309.484C73.8353 309.792 73.7233 310.133 73.7233 310.506V314.58C73.7233 314.692 73.6813 314.79 73.5973 314.874C73.5133 314.958 73.4153 315 73.3033 315C73.1727 315 73.07 314.958 72.9953 314.874C72.9207 314.79 72.8833 314.692 72.8833 314.58V308.308C72.8833 308.196 72.9207 308.098 72.9953 308.014C73.0793 307.93 73.182 307.888 73.3033 307.888C73.4247 307.888 73.5227 307.93 73.5973 308.014C73.6813 308.098 73.7233 308.196 73.7233 308.308V309.484L73.4013 309.988C73.42 309.689 73.5133 309.405 73.6813 309.134C73.8587 308.854 74.0827 308.607 74.3533 308.392C74.624 308.168 74.9227 307.995 75.2493 307.874C75.5853 307.743 75.9213 307.678 76.2573 307.678ZM84.2391 307.79C84.8271 307.79 85.3031 307.916 85.6671 308.168C86.0311 308.42 86.2971 308.761 86.4651 309.19C86.6424 309.619 86.7311 310.095 86.7311 310.618V314.58C86.7311 314.692 86.6891 314.79 86.6051 314.874C86.5211 314.958 86.4231 315 86.3111 315C86.1804 315 86.0778 314.958 86.0031 314.874C85.9284 314.79 85.8911 314.692 85.8911 314.58V310.618C85.8911 310.235 85.8304 309.89 85.7091 309.582C85.5971 309.274 85.4104 309.031 85.1491 308.854C84.8878 308.667 84.5378 308.574 84.0991 308.574C83.7071 308.574 83.3338 308.667 82.9791 308.854C82.6338 309.031 82.3538 309.274 82.1391 309.582C81.9244 309.89 81.8171 310.235 81.8171 310.618V314.58C81.8171 314.692 81.7751 314.79 81.6911 314.874C81.6071 314.958 81.5091 315 81.3971 315C81.2664 315 81.1638 314.958 81.0891 314.874C81.0144 314.79 80.9771 314.692 80.9771 314.58V305.06C80.9771 304.948 81.0144 304.85 81.0891 304.766C81.1731 304.682 81.2758 304.64 81.3971 304.64C81.5184 304.64 81.6164 304.682 81.6911 304.766C81.7751 304.85 81.8171 304.948 81.8171 305.06V309.596L81.4951 310.086C81.5138 309.797 81.6024 309.517 81.7611 309.246C81.9291 308.966 82.1438 308.719 82.4051 308.504C82.6664 308.28 82.9558 308.107 83.2731 307.986C83.5904 307.855 83.9124 307.79 84.2391 307.79ZM94.8001 307.846C94.9215 307.846 95.0195 307.888 95.0941 307.972C95.1781 308.056 95.2201 308.159 95.2201 308.28V314.58C95.2201 314.692 95.1781 314.79 95.0941 314.874C95.0101 314.958 94.9121 315 94.8001 315C94.6788 315 94.5761 314.958 94.4921 314.874C94.4175 314.79 94.3801 314.692 94.3801 314.58V312.914L94.6181 312.802C94.6181 313.063 94.5435 313.329 94.3941 313.6C94.2541 313.871 94.0581 314.123 93.8061 314.356C93.5541 314.589 93.2555 314.781 92.9101 314.93C92.5741 315.07 92.2101 315.14 91.8181 315.14C91.1835 315.14 90.6141 314.977 90.1101 314.65C89.6155 314.323 89.2235 313.875 88.9341 313.306C88.6541 312.737 88.5141 312.097 88.5141 311.388C88.5141 310.66 88.6588 310.021 88.9481 309.47C89.2375 308.91 89.6295 308.471 90.1241 308.154C90.6188 307.837 91.1788 307.678 91.8041 307.678C92.2055 307.678 92.5788 307.748 92.9241 307.888C93.2788 308.028 93.5868 308.219 93.8481 308.462C94.1095 308.705 94.3101 308.985 94.4501 309.302C94.5995 309.61 94.6741 309.932 94.6741 310.268L94.3801 310.058V308.28C94.3801 308.159 94.4175 308.056 94.4921 307.972C94.5761 307.888 94.6788 307.846 94.8001 307.846ZM91.8881 314.356C92.3828 314.356 92.8215 314.23 93.2041 313.978C93.5868 313.717 93.8855 313.362 94.1001 312.914C94.3241 312.457 94.4361 311.948 94.4361 311.388C94.4361 310.837 94.3241 310.343 94.1001 309.904C93.8855 309.465 93.5868 309.115 93.2041 308.854C92.8215 308.593 92.3828 308.462 91.8881 308.462C91.4028 308.462 90.9641 308.588 90.5721 308.84C90.1895 309.092 89.8861 309.437 89.6621 309.876C89.4475 310.315 89.3401 310.819 89.3401 311.388C89.3401 311.948 89.4475 312.457 89.6621 312.914C89.8861 313.362 90.1895 313.717 90.5721 313.978C90.9548 314.23 91.3935 314.356 91.8881 314.356Z" fill="#272343"/>
<rect x="54" y="246" width="252" height="35" rx="8" fill="#EDECEC"/>
<rect x="54" y="323" width="252" height="35" rx="8" fill="#EDECEC"/>
</svg>
