<svg width="360" height="800" viewBox="0 0 360 800" fill="none" xmlns="http://www.w3.org/2000/svg">
<rect width="360" height="800" fill="white"/>
<path d="M102.225 175.45C99.945 175.45 97.815 175.03 95.835 174.19C93.855 173.35 92.115 172.195 90.615 170.725C89.115 169.225 87.93 167.5 87.06 165.55C86.22 163.6 85.8 161.5 85.8 159.25C85.8 157 86.22 154.9 87.06 152.95C87.93 151 89.115 149.29 90.615 147.82C92.115 146.32 93.855 145.15 95.835 144.31C97.815 143.47 99.945 143.05 102.225 143.05C103.635 143.05 105 143.2 106.32 143.5C107.64 143.8 108.855 144.25 109.965 144.85C110.415 145.09 110.745 145.42 110.955 145.84C111.195 146.23 111.315 146.635 111.315 147.055C111.315 147.775 111.075 148.42 110.595 148.99C110.115 149.56 109.5 149.845 108.75 149.845C108.51 149.845 108.255 149.815 107.985 149.755C107.745 149.695 107.505 149.605 107.265 149.485C106.515 149.155 105.72 148.9 104.88 148.72C104.04 148.54 103.155 148.45 102.225 148.45C100.275 148.45 98.49 148.945 96.87 149.935C95.28 150.895 94.005 152.2 93.045 153.85C92.115 155.47 91.65 157.27 91.65 159.25C91.65 161.2 92.115 163 93.045 164.65C94.005 166.3 95.28 167.62 96.87 168.61C98.49 169.57 100.275 170.05 102.225 170.05C103.125 170.05 104.115 169.96 105.195 169.78C106.275 169.6 107.16 169.36 107.85 169.06L107.445 170.41V162.715L108.21 163.39H103.215C102.435 163.39 101.775 163.135 101.235 162.625C100.725 162.115 100.47 161.47 100.47 160.69C100.47 159.91 100.725 159.265 101.235 158.755C101.775 158.245 102.435 157.99 103.215 157.99H110.595C111.375 157.99 112.02 158.26 112.53 158.8C113.04 159.31 113.295 159.955 113.295 160.735V170.275C113.295 170.875 113.145 171.37 112.845 171.76C112.575 172.15 112.26 172.465 111.9 172.705C110.52 173.545 109.005 174.22 107.355 174.73C105.735 175.21 104.025 175.45 102.225 175.45ZM129.598 175.45C127.048 175.45 124.828 174.925 122.938 173.875C121.078 172.795 119.638 171.34 118.618 169.51C117.628 167.68 117.133 165.61 117.133 163.3C117.133 160.6 117.673 158.305 118.753 156.415C119.863 154.495 121.303 153.025 123.073 152.005C124.843 150.985 126.718 150.475 128.698 150.475C130.228 150.475 131.668 150.79 133.018 151.42C134.398 152.05 135.613 152.92 136.663 154.03C137.713 155.11 138.538 156.37 139.138 157.81C139.768 159.25 140.083 160.78 140.083 162.4C140.053 163.12 139.768 163.705 139.228 164.155C138.688 164.605 138.058 164.83 137.338 164.83H120.148L118.798 160.33H135.313L134.323 161.23V160.015C134.263 159.145 133.948 158.365 133.378 157.675C132.838 156.985 132.148 156.445 131.308 156.055C130.498 155.635 129.628 155.425 128.698 155.425C127.798 155.425 126.958 155.545 126.178 155.785C125.398 156.025 124.723 156.43 124.153 157C123.583 157.57 123.133 158.335 122.803 159.295C122.473 160.255 122.308 161.47 122.308 162.94C122.308 164.56 122.638 165.94 123.298 167.08C123.988 168.19 124.858 169.045 125.908 169.645C126.988 170.215 128.128 170.5 129.328 170.5C130.438 170.5 131.323 170.41 131.983 170.23C132.643 170.05 133.168 169.84 133.558 169.6C133.978 169.33 134.353 169.105 134.683 168.925C135.223 168.655 135.733 168.52 136.213 168.52C136.873 168.52 137.413 168.745 137.833 169.195C138.283 169.645 138.508 170.17 138.508 170.77C138.508 171.58 138.088 172.315 137.248 172.975C136.468 173.635 135.373 174.22 133.963 174.73C132.553 175.21 131.098 175.45 129.598 175.45ZM145.071 151.375H155.736C156.456 151.375 157.056 151.615 157.536 152.095C158.016 152.575 158.256 153.175 158.256 153.895C158.256 154.585 158.016 155.17 157.536 155.65C157.056 156.1 156.456 156.325 155.736 156.325H145.071C144.351 156.325 143.751 156.085 143.271 155.605C142.791 155.125 142.551 154.525 142.551 153.805C142.551 153.115 142.791 152.545 143.271 152.095C143.751 151.615 144.351 151.375 145.071 151.375ZM149.886 145.75C150.666 145.75 151.296 146.02 151.776 146.56C152.286 147.07 152.541 147.715 152.541 148.495V168.52C152.541 168.94 152.616 169.285 152.766 169.555C152.946 169.825 153.171 170.02 153.441 170.14C153.741 170.26 154.056 170.32 154.386 170.32C154.746 170.32 155.076 170.26 155.376 170.14C155.676 169.99 156.021 169.915 156.411 169.915C156.831 169.915 157.206 170.11 157.536 170.5C157.896 170.89 158.076 171.43 158.076 172.12C158.076 172.96 157.611 173.65 156.681 174.19C155.781 174.73 154.806 175 153.756 175C153.126 175 152.421 174.955 151.641 174.865C150.891 174.745 150.171 174.49 149.481 174.1C148.821 173.68 148.266 173.05 147.816 172.21C147.366 171.37 147.141 170.215 147.141 168.745V148.495C147.141 147.715 147.396 147.07 147.906 146.56C148.446 146.02 149.106 145.75 149.886 145.75ZM199.079 143.365C199.769 143.365 200.429 143.635 201.059 144.175C201.689 144.685 202.004 145.39 202.004 146.29C202.004 146.56 201.959 146.86 201.869 147.19L193.004 173.29C192.824 173.83 192.494 174.25 192.014 174.55C191.564 174.82 191.084 174.97 190.574 175C190.064 175 189.554 174.85 189.044 174.55C188.564 174.25 188.189 173.815 187.919 173.245L181.259 158.125L181.664 158.395L175.094 173.245C174.824 173.815 174.434 174.25 173.924 174.55C173.444 174.85 172.949 175 172.439 175C171.959 174.97 171.479 174.82 170.999 174.55C170.519 174.25 170.189 173.83 170.009 173.29L161.144 147.19C161.054 146.86 161.009 146.56 161.009 146.29C161.009 145.39 161.324 144.685 161.954 144.175C162.614 143.635 163.289 143.365 163.979 143.365C164.549 143.365 165.074 143.515 165.554 143.815C166.064 144.115 166.409 144.55 166.589 145.12L173.744 166.81L172.754 166.765L179.144 151.42C179.384 150.88 179.729 150.46 180.179 150.16C180.629 149.83 181.139 149.68 181.709 149.71C182.279 149.68 182.789 149.83 183.239 150.16C183.689 150.46 184.019 150.88 184.229 151.42L190.079 166.09L189.359 166.54L196.424 145.12C196.604 144.55 196.949 144.115 197.459 143.815C197.969 143.515 198.509 143.365 199.079 143.365ZM228.361 162.985C228.361 165.445 227.806 167.62 226.696 169.51C225.616 171.37 224.146 172.825 222.286 173.875C220.456 174.925 218.401 175.45 216.121 175.45C213.841 175.45 211.771 174.925 209.911 173.875C208.081 172.825 206.611 171.37 205.501 169.51C204.421 167.62 203.881 165.445 203.881 162.985C203.881 160.525 204.421 158.365 205.501 156.505C206.611 154.615 208.081 153.145 209.911 152.095C211.771 151.015 213.841 150.475 216.121 150.475C218.401 150.475 220.456 151.015 222.286 152.095C224.146 153.145 225.616 154.615 226.696 156.505C227.806 158.365 228.361 160.525 228.361 162.985ZM222.961 162.985C222.961 161.455 222.646 160.135 222.016 159.025C221.416 157.885 220.591 157 219.541 156.37C218.521 155.74 217.381 155.425 216.121 155.425C214.861 155.425 213.706 155.74 212.656 156.37C211.636 157 210.811 157.885 210.181 159.025C209.581 160.135 209.281 161.455 209.281 162.985C209.281 164.485 209.581 165.805 210.181 166.945C210.811 168.055 211.636 168.925 212.656 169.555C213.706 170.185 214.861 170.5 216.121 170.5C217.381 170.5 218.521 170.185 219.541 169.555C220.591 168.925 221.416 168.055 222.016 166.945C222.646 165.805 222.961 164.485 222.961 162.985ZM235.787 175C235.007 175 234.362 174.745 233.852 174.235C233.342 173.695 233.087 173.035 233.087 172.255V153.67C233.087 152.89 233.342 152.245 233.852 151.735C234.362 151.195 235.007 150.925 235.787 150.925C236.567 150.925 237.212 151.195 237.722 151.735C238.232 152.245 238.487 152.89 238.487 153.67V157.9L238.172 154.885C238.502 154.165 238.922 153.535 239.432 152.995C239.972 152.425 240.572 151.96 241.232 151.6C241.892 151.21 242.597 150.925 243.347 150.745C244.097 150.565 244.847 150.475 245.597 150.475C246.497 150.475 247.247 150.73 247.847 151.24C248.477 151.75 248.792 152.35 248.792 153.04C248.792 154.03 248.537 154.75 248.027 155.2C247.517 155.62 246.962 155.83 246.362 155.83C245.792 155.83 245.267 155.725 244.787 155.515C244.337 155.305 243.812 155.2 243.212 155.2C242.672 155.2 242.117 155.335 241.547 155.605C241.007 155.845 240.497 156.235 240.017 156.775C239.567 157.315 239.192 157.99 238.892 158.8C238.622 159.58 238.487 160.51 238.487 161.59V172.255C238.487 173.035 238.232 173.695 237.722 174.235C237.212 174.745 236.567 175 235.787 175ZM255.749 175C254.969 175 254.324 174.745 253.814 174.235C253.304 173.695 253.049 173.035 253.049 172.255V144.445C253.049 143.665 253.304 143.02 253.814 142.51C254.324 141.97 254.969 141.7 255.749 141.7C256.529 141.7 257.174 141.97 257.684 142.51C258.194 143.02 258.449 143.665 258.449 144.445V172.255C258.449 173.035 258.194 173.695 257.684 174.235C257.174 174.745 256.529 175 255.749 175ZM270.059 150.925C270.749 150.925 271.349 151.21 271.859 151.78C272.369 152.35 272.624 152.905 272.624 153.445C272.624 154.165 272.264 154.84 271.544 155.47L257.999 167.935L257.774 161.725L268.079 151.78C268.649 151.21 269.309 150.925 270.059 150.925ZM270.734 174.955C269.954 174.955 269.294 174.655 268.754 174.055L260.429 165.235L264.524 161.455L272.624 170.275C273.194 170.875 273.479 171.55 273.479 172.3C273.479 173.08 273.164 173.725 272.534 174.235C271.934 174.715 271.334 174.955 270.734 174.955Z" fill="#272343"/>
<rect x="49" y="355" width="259" height="49" rx="8" fill="#272343"/>
<path d="M149.69 371.684C150.141 371.909 150.401 372.265 150.47 372.75C150.557 373.235 150.435 373.677 150.106 374.076C149.881 374.388 149.586 374.561 149.222 374.596C148.875 374.631 148.52 374.561 148.156 374.388C147.74 374.197 147.298 374.05 146.83 373.946C146.379 373.842 145.903 373.79 145.4 373.79C144.464 373.79 143.623 373.937 142.878 374.232C142.15 374.527 141.526 374.951 141.006 375.506C140.486 376.043 140.087 376.685 139.81 377.43C139.55 378.175 139.42 378.999 139.42 379.9C139.42 380.957 139.567 381.876 139.862 382.656C140.174 383.436 140.599 384.086 141.136 384.606C141.673 385.126 142.306 385.516 143.034 385.776C143.762 386.019 144.551 386.14 145.4 386.14C145.868 386.14 146.336 386.097 146.804 386.01C147.272 385.923 147.723 385.767 148.156 385.542C148.52 385.369 148.875 385.308 149.222 385.36C149.586 385.412 149.889 385.594 150.132 385.906C150.479 386.339 150.6 386.79 150.496 387.258C150.409 387.709 150.149 388.038 149.716 388.246C149.265 388.471 148.797 388.662 148.312 388.818C147.844 388.957 147.367 389.061 146.882 389.13C146.397 389.217 145.903 389.26 145.4 389.26C144.152 389.26 142.965 389.061 141.838 388.662C140.729 388.263 139.732 387.674 138.848 386.894C137.981 386.114 137.297 385.143 136.794 383.982C136.291 382.803 136.04 381.443 136.04 379.9C136.04 378.565 136.265 377.335 136.716 376.208C137.184 375.081 137.834 374.111 138.666 373.296C139.515 372.464 140.512 371.823 141.656 371.372C142.8 370.904 144.048 370.67 145.4 370.67C146.163 370.67 146.908 370.757 147.636 370.93C148.364 371.103 149.049 371.355 149.69 371.684ZM156.371 387.414C156.371 387.865 156.215 388.246 155.903 388.558C155.608 388.853 155.235 389 154.785 389C154.351 389 153.987 388.853 153.693 388.558C153.398 388.246 153.251 387.865 153.251 387.414V371.346C153.251 370.895 153.398 370.523 153.693 370.228C154.005 369.916 154.386 369.76 154.837 369.76C155.287 369.76 155.651 369.916 155.929 370.228C156.223 370.523 156.371 370.895 156.371 371.346V387.414ZM162.937 387.414C162.937 387.865 162.789 388.246 162.495 388.558C162.2 388.853 161.827 389 161.377 389C160.926 389 160.553 388.853 160.259 388.558C159.964 388.246 159.817 387.865 159.817 387.414V376.676C159.817 376.225 159.964 375.853 160.259 375.558C160.553 375.246 160.926 375.09 161.377 375.09C161.827 375.09 162.2 375.246 162.495 375.558C162.789 375.853 162.937 376.225 162.937 376.676V387.414ZM161.351 373.4C160.761 373.4 160.345 373.305 160.103 373.114C159.86 372.923 159.739 372.585 159.739 372.1V371.606C159.739 371.103 159.869 370.765 160.129 370.592C160.406 370.401 160.822 370.306 161.377 370.306C161.983 370.306 162.408 370.401 162.651 370.592C162.893 370.783 163.015 371.121 163.015 371.606V372.1C163.015 372.603 162.885 372.949 162.625 373.14C162.365 373.313 161.94 373.4 161.351 373.4ZM172.695 389.26C171.222 389.26 169.939 388.957 168.847 388.35C167.772 387.726 166.94 386.885 166.351 385.828C165.779 384.771 165.493 383.575 165.493 382.24C165.493 380.68 165.805 379.354 166.429 378.262C167.07 377.153 167.902 376.303 168.925 375.714C169.948 375.125 171.031 374.83 172.175 374.83C173.059 374.83 173.891 375.012 174.671 375.376C175.468 375.74 176.17 376.243 176.777 376.884C177.384 377.508 177.86 378.236 178.207 379.068C178.571 379.9 178.753 380.784 178.753 381.72C178.736 382.136 178.571 382.474 178.259 382.734C177.947 382.994 177.583 383.124 177.167 383.124H167.235L166.455 380.524H175.997L175.425 381.044V380.342C175.39 379.839 175.208 379.389 174.879 378.99C174.567 378.591 174.168 378.279 173.683 378.054C173.215 377.811 172.712 377.69 172.175 377.69C171.655 377.69 171.17 377.759 170.719 377.898C170.268 378.037 169.878 378.271 169.549 378.6C169.22 378.929 168.96 379.371 168.769 379.926C168.578 380.481 168.483 381.183 168.483 382.032C168.483 382.968 168.674 383.765 169.055 384.424C169.454 385.065 169.956 385.559 170.563 385.906C171.187 386.235 171.846 386.4 172.539 386.4C173.18 386.4 173.692 386.348 174.073 386.244C174.454 386.14 174.758 386.019 174.983 385.88C175.226 385.724 175.442 385.594 175.633 385.49C175.945 385.334 176.24 385.256 176.517 385.256C176.898 385.256 177.21 385.386 177.453 385.646C177.713 385.906 177.843 386.209 177.843 386.556C177.843 387.024 177.6 387.449 177.115 387.83C176.664 388.211 176.032 388.549 175.217 388.844C174.402 389.121 173.562 389.26 172.695 389.26ZM188.915 374.83C190.198 374.83 191.168 375.099 191.827 375.636C192.503 376.173 192.962 376.893 193.205 377.794C193.465 378.678 193.595 379.666 193.595 380.758V387.414C193.595 387.865 193.448 388.246 193.153 388.558C192.858 388.853 192.486 389 192.035 389C191.584 389 191.212 388.853 190.917 388.558C190.622 388.246 190.475 387.865 190.475 387.414V380.758C190.475 380.186 190.397 379.675 190.241 379.224C190.102 378.756 189.842 378.383 189.461 378.106C189.08 377.829 188.534 377.69 187.823 377.69C187.13 377.69 186.54 377.829 186.055 378.106C185.587 378.383 185.223 378.756 184.963 379.224C184.72 379.675 184.599 380.186 184.599 380.758V387.414C184.599 387.865 184.452 388.246 184.157 388.558C183.862 388.853 183.49 389 183.039 389C182.588 389 182.216 388.853 181.921 388.558C181.626 388.246 181.479 387.865 181.479 387.414V376.676C181.479 376.225 181.626 375.853 181.921 375.558C182.216 375.246 182.588 375.09 183.039 375.09C183.49 375.09 183.862 375.246 184.157 375.558C184.452 375.853 184.599 376.225 184.599 376.676V377.794L184.209 377.716C184.365 377.421 184.59 377.109 184.885 376.78C185.18 376.433 185.526 376.113 185.925 375.818C186.324 375.523 186.774 375.289 187.277 375.116C187.78 374.925 188.326 374.83 188.915 374.83ZM197.123 375.35H203.285C203.701 375.35 204.048 375.489 204.325 375.766C204.603 376.043 204.741 376.39 204.741 376.806C204.741 377.205 204.603 377.543 204.325 377.82C204.048 378.08 203.701 378.21 203.285 378.21H197.123C196.707 378.21 196.361 378.071 196.083 377.794C195.806 377.517 195.667 377.17 195.667 376.754C195.667 376.355 195.806 376.026 196.083 375.766C196.361 375.489 196.707 375.35 197.123 375.35ZM199.905 372.1C200.356 372.1 200.72 372.256 200.997 372.568C201.292 372.863 201.439 373.235 201.439 373.686V385.256C201.439 385.499 201.483 385.698 201.569 385.854C201.673 386.01 201.803 386.123 201.959 386.192C202.133 386.261 202.315 386.296 202.505 386.296C202.713 386.296 202.904 386.261 203.077 386.192C203.251 386.105 203.45 386.062 203.675 386.062C203.918 386.062 204.135 386.175 204.325 386.4C204.533 386.625 204.637 386.937 204.637 387.336C204.637 387.821 204.369 388.22 203.831 388.532C203.311 388.844 202.748 389 202.141 389C201.777 389 201.37 388.974 200.919 388.922C200.486 388.853 200.07 388.705 199.671 388.48C199.29 388.237 198.969 387.873 198.709 387.388C198.449 386.903 198.319 386.235 198.319 385.386V373.686C198.319 373.235 198.467 372.863 198.761 372.568C199.073 372.256 199.455 372.1 199.905 372.1ZM214.031 389.26C212.558 389.26 211.275 388.957 210.183 388.35C209.108 387.726 208.276 386.885 207.687 385.828C207.115 384.771 206.829 383.575 206.829 382.24C206.829 380.68 207.141 379.354 207.765 378.262C208.406 377.153 209.238 376.303 210.261 375.714C211.284 375.125 212.367 374.83 213.511 374.83C214.395 374.83 215.227 375.012 216.007 375.376C216.804 375.74 217.506 376.243 218.113 376.884C218.72 377.508 219.196 378.236 219.543 379.068C219.907 379.9 220.089 380.784 220.089 381.72C220.072 382.136 219.907 382.474 219.595 382.734C219.283 382.994 218.919 383.124 218.503 383.124H208.571L207.791 380.524H217.333L216.761 381.044V380.342C216.726 379.839 216.544 379.389 216.215 378.99C215.903 378.591 215.504 378.279 215.019 378.054C214.551 377.811 214.048 377.69 213.511 377.69C212.991 377.69 212.506 377.759 212.055 377.898C211.604 378.037 211.214 378.271 210.885 378.6C210.556 378.929 210.296 379.371 210.105 379.926C209.914 380.481 209.819 381.183 209.819 382.032C209.819 382.968 210.01 383.765 210.391 384.424C210.79 385.065 211.292 385.559 211.899 385.906C212.523 386.235 213.182 386.4 213.875 386.4C214.516 386.4 215.028 386.348 215.409 386.244C215.79 386.14 216.094 386.019 216.319 385.88C216.562 385.724 216.778 385.594 216.969 385.49C217.281 385.334 217.576 385.256 217.853 385.256C218.234 385.256 218.546 385.386 218.789 385.646C219.049 385.906 219.179 386.209 219.179 386.556C219.179 387.024 218.936 387.449 218.451 387.83C218 388.211 217.368 388.549 216.553 388.844C215.738 389.121 214.898 389.26 214.031 389.26Z" fill="white"/>
<path d="M104.92 206.2C103.96 206.2 103.107 206.067 102.36 205.8C101.613 205.533 100.9 205.093 100.22 204.48C100.073 204.373 99.96 204.247 99.88 204.1C99.8133 203.94 99.78 203.78 99.78 203.62C99.78 203.367 99.8733 203.14 100.06 202.94C100.247 202.74 100.48 202.64 100.76 202.64C100.973 202.64 101.173 202.713 101.36 202.86C101.867 203.327 102.393 203.68 102.94 203.92C103.5 204.16 104.153 204.28 104.9 204.28C105.433 204.28 105.92 204.193 106.36 204.02C106.813 203.847 107.173 203.613 107.44 203.32C107.707 203.027 107.84 202.687 107.84 202.3C107.84 201.82 107.7 201.427 107.42 201.12C107.153 200.8 106.76 200.54 106.24 200.34C105.733 200.127 105.12 199.947 104.4 199.8C103.733 199.68 103.133 199.513 102.6 199.3C102.08 199.087 101.633 198.82 101.26 198.5C100.887 198.167 100.6 197.773 100.4 197.32C100.2 196.867 100.1 196.34 100.1 195.74C100.1 194.927 100.313 194.227 100.74 193.64C101.167 193.053 101.747 192.6 102.48 192.28C103.213 191.96 104.04 191.8 104.96 191.8C105.8 191.8 106.587 191.933 107.32 192.2C108.053 192.453 108.647 192.8 109.1 193.24C109.42 193.52 109.58 193.82 109.58 194.14C109.58 194.38 109.48 194.607 109.28 194.82C109.093 195.02 108.873 195.12 108.62 195.12C108.433 195.12 108.273 195.067 108.14 194.96C107.927 194.733 107.64 194.533 107.28 194.36C106.92 194.173 106.533 194.02 106.12 193.9C105.72 193.78 105.333 193.72 104.96 193.72C104.36 193.72 103.847 193.807 103.42 193.98C102.993 194.14 102.667 194.367 102.44 194.66C102.213 194.94 102.1 195.273 102.1 195.66C102.1 196.113 102.227 196.487 102.48 196.78C102.747 197.073 103.113 197.313 103.58 197.5C104.047 197.673 104.58 197.833 105.18 197.98C105.913 198.14 106.567 198.32 107.14 198.52C107.727 198.72 108.22 198.98 108.62 199.3C109.02 199.607 109.327 199.993 109.54 200.46C109.753 200.927 109.86 201.507 109.86 202.2C109.86 203 109.633 203.7 109.18 204.3C108.727 204.9 108.127 205.367 107.38 205.7C106.647 206.033 105.827 206.2 104.92 206.2ZM116.999 206.2C115.893 206.2 114.933 205.973 114.119 205.52C113.306 205.053 112.673 204.42 112.219 203.62C111.779 202.807 111.559 201.88 111.559 200.84C111.559 199.667 111.793 198.667 112.259 197.84C112.739 197 113.359 196.36 114.119 195.92C114.879 195.467 115.686 195.24 116.539 195.24C117.193 195.24 117.813 195.373 118.399 195.64C118.986 195.893 119.506 196.253 119.959 196.72C120.426 197.173 120.793 197.713 121.059 198.34C121.326 198.953 121.466 199.627 121.479 200.36C121.466 200.627 121.359 200.847 121.159 201.02C120.959 201.193 120.726 201.28 120.459 201.28H112.679L112.199 199.58H119.719L119.339 199.94V199.44C119.313 198.973 119.159 198.567 118.879 198.22C118.599 197.86 118.253 197.587 117.839 197.4C117.426 197.2 116.993 197.1 116.539 197.1C116.139 197.1 115.753 197.167 115.379 197.3C115.019 197.42 114.693 197.62 114.399 197.9C114.119 198.18 113.893 198.553 113.719 199.02C113.559 199.473 113.479 200.04 113.479 200.72C113.479 201.453 113.633 202.093 113.939 202.64C114.246 203.187 114.659 203.613 115.179 203.92C115.699 204.213 116.273 204.36 116.899 204.36C117.393 204.36 117.799 204.313 118.119 204.22C118.439 204.113 118.706 203.987 118.919 203.84C119.133 203.693 119.319 203.553 119.479 203.42C119.679 203.3 119.879 203.24 120.079 203.24C120.319 203.24 120.519 203.327 120.679 203.5C120.839 203.66 120.919 203.853 120.919 204.08C120.919 204.373 120.773 204.64 120.479 204.88C120.119 205.227 119.619 205.533 118.979 205.8C118.353 206.067 117.693 206.2 116.999 206.2ZM126.02 206.44C126.02 207.16 125.873 207.78 125.58 208.3C125.287 208.82 124.9 209.22 124.42 209.5C123.94 209.78 123.427 209.92 122.88 209.92C122.6 209.92 122.373 209.827 122.2 209.64C122.027 209.467 121.94 209.253 121.94 209V208.82C121.94 208.58 122.027 208.387 122.2 208.24C122.36 208.093 122.56 207.98 122.8 207.9C123.107 207.807 123.347 207.667 123.52 207.48C123.707 207.307 123.833 207.08 123.9 206.8C123.98 206.533 124.02 206.24 124.02 205.92V196.48C124.02 196.2 124.113 195.967 124.3 195.78C124.487 195.58 124.727 195.48 125.02 195.48C125.313 195.48 125.553 195.58 125.74 195.78C125.927 195.967 126.02 196.2 126.02 196.48V206.44ZM124.98 194.08C124.593 194.08 124.313 194.013 124.14 193.88C123.967 193.733 123.88 193.493 123.88 193.16V192.84C123.88 192.507 123.973 192.273 124.16 192.14C124.347 192.007 124.627 191.94 125 191.94C125.4 191.94 125.687 192.013 125.86 192.16C126.033 192.293 126.12 192.52 126.12 192.84V193.16C126.12 193.507 126.027 193.747 125.84 193.88C125.667 194.013 125.38 194.08 124.98 194.08ZM137.829 195.32C138.122 195.32 138.362 195.42 138.549 195.62C138.735 195.807 138.829 196.047 138.829 196.34V204.98C138.829 205.273 138.735 205.52 138.549 205.72C138.362 205.907 138.122 206 137.829 206C137.549 206 137.309 205.907 137.109 205.72C136.922 205.52 136.829 205.273 136.829 204.98V203.54L137.249 203.6C137.249 203.84 137.149 204.107 136.949 204.4C136.762 204.693 136.502 204.98 136.169 205.26C135.835 205.527 135.442 205.753 134.989 205.94C134.535 206.113 134.049 206.2 133.529 206.2C132.609 206.2 131.782 205.967 131.049 205.5C130.315 205.02 129.735 204.367 129.309 203.54C128.882 202.713 128.669 201.773 128.669 200.72C128.669 199.64 128.882 198.693 129.309 197.88C129.735 197.053 130.309 196.407 131.029 195.94C131.762 195.473 132.575 195.24 133.469 195.24C134.042 195.24 134.569 195.333 135.049 195.52C135.542 195.707 135.969 195.947 136.329 196.24C136.689 196.533 136.962 196.847 137.149 197.18C137.349 197.5 137.449 197.807 137.449 198.1L136.829 198.16V196.34C136.829 196.06 136.922 195.82 137.109 195.62C137.309 195.42 137.549 195.32 137.829 195.32ZM133.749 204.36C134.375 204.36 134.929 204.2 135.409 203.88C135.889 203.56 136.262 203.127 136.529 202.58C136.795 202.02 136.929 201.4 136.929 200.72C136.929 200.027 136.795 199.407 136.529 198.86C136.262 198.313 135.889 197.88 135.409 197.56C134.929 197.24 134.375 197.08 133.749 197.08C133.135 197.08 132.589 197.24 132.109 197.56C131.642 197.88 131.269 198.313 130.989 198.86C130.722 199.407 130.589 200.027 130.589 200.72C130.589 201.4 130.722 202.02 130.989 202.58C131.269 203.127 131.642 203.56 132.109 203.88C132.589 204.2 133.135 204.36 133.749 204.36ZM153.557 192C154.784 192 155.71 192.3 156.337 192.9C156.977 193.5 157.297 194.373 157.297 195.52C157.297 196.12 157.15 196.667 156.857 197.16C156.577 197.64 156.157 198.02 155.597 198.3C155.05 198.58 154.364 198.727 153.537 198.74L153.577 198C154.017 198 154.49 198.06 154.997 198.18C155.517 198.3 156.004 198.507 156.457 198.8C156.91 199.093 157.284 199.493 157.577 200C157.87 200.493 158.017 201.113 158.017 201.86C158.017 202.673 157.884 203.353 157.617 203.9C157.35 204.433 156.997 204.853 156.557 205.16C156.117 205.467 155.63 205.687 155.097 205.82C154.577 205.94 154.064 206 153.557 206H148.437C148.157 206 147.917 205.907 147.717 205.72C147.517 205.52 147.417 205.273 147.417 204.98V193.02C147.417 192.727 147.517 192.487 147.717 192.3C147.917 192.1 148.157 192 148.437 192H153.557ZM153.277 193.96H149.337L149.577 193.64V197.94L149.357 197.72H153.317C153.797 197.707 154.217 197.547 154.577 197.24C154.95 196.92 155.137 196.453 155.137 195.84C155.137 195.213 154.97 194.747 154.637 194.44C154.304 194.12 153.85 193.96 153.277 193.96ZM153.417 199.68H149.437L149.577 199.54V204.26L149.417 204.08H153.537C154.23 204.08 154.79 203.9 155.217 203.54C155.644 203.167 155.857 202.607 155.857 201.86C155.857 201.233 155.73 200.767 155.477 200.46C155.224 200.153 154.91 199.947 154.537 199.84C154.164 199.733 153.79 199.68 153.417 199.68ZM165.163 206.2C164.057 206.2 163.097 205.973 162.283 205.52C161.47 205.053 160.837 204.42 160.383 203.62C159.943 202.807 159.723 201.88 159.723 200.84C159.723 199.667 159.957 198.667 160.423 197.84C160.903 197 161.523 196.36 162.283 195.92C163.043 195.467 163.85 195.24 164.703 195.24C165.357 195.24 165.977 195.373 166.563 195.64C167.15 195.893 167.67 196.253 168.123 196.72C168.59 197.173 168.957 197.713 169.223 198.34C169.49 198.953 169.63 199.627 169.643 200.36C169.63 200.627 169.523 200.847 169.323 201.02C169.123 201.193 168.89 201.28 168.623 201.28H160.843L160.363 199.58H167.883L167.503 199.94V199.44C167.477 198.973 167.323 198.567 167.043 198.22C166.763 197.86 166.417 197.587 166.003 197.4C165.59 197.2 165.157 197.1 164.703 197.1C164.303 197.1 163.917 197.167 163.543 197.3C163.183 197.42 162.857 197.62 162.563 197.9C162.283 198.18 162.057 198.553 161.883 199.02C161.723 199.473 161.643 200.04 161.643 200.72C161.643 201.453 161.797 202.093 162.103 202.64C162.41 203.187 162.823 203.613 163.343 203.92C163.863 204.213 164.437 204.36 165.063 204.36C165.557 204.36 165.963 204.313 166.283 204.22C166.603 204.113 166.87 203.987 167.083 203.84C167.297 203.693 167.483 203.553 167.643 203.42C167.843 203.3 168.043 203.24 168.243 203.24C168.483 203.24 168.683 203.327 168.843 203.5C169.003 203.66 169.083 203.853 169.083 204.08C169.083 204.373 168.937 204.64 168.643 204.88C168.283 205.227 167.783 205.533 167.143 205.8C166.517 206.067 165.857 206.2 165.163 206.2ZM177.184 195.3C178.171 195.3 178.931 195.547 179.464 196.04C179.997 196.52 180.351 197.173 180.524 198L180.204 197.9L180.344 197.58C180.517 197.233 180.777 196.887 181.124 196.54C181.484 196.18 181.911 195.887 182.404 195.66C182.897 195.42 183.424 195.3 183.984 195.3C184.904 195.3 185.617 195.5 186.124 195.9C186.631 196.287 186.984 196.813 187.184 197.48C187.384 198.133 187.484 198.867 187.484 199.68V204.98C187.484 205.273 187.391 205.52 187.204 205.72C187.017 205.907 186.777 206 186.484 206C186.204 206 185.964 205.907 185.764 205.72C185.577 205.52 185.484 205.273 185.484 204.98V199.7C185.484 199.233 185.417 198.807 185.284 198.42C185.164 198.033 184.944 197.727 184.624 197.5C184.317 197.26 183.891 197.14 183.344 197.14C182.824 197.14 182.357 197.26 181.944 197.5C181.544 197.727 181.231 198.033 181.004 198.42C180.777 198.807 180.664 199.233 180.664 199.7V204.98C180.664 205.273 180.571 205.52 180.384 205.72C180.197 205.907 179.957 206 179.664 206C179.371 206 179.131 205.907 178.944 205.72C178.757 205.52 178.664 205.273 178.664 204.98V199.68C178.664 199.213 178.597 198.787 178.464 198.4C178.344 198.013 178.131 197.707 177.824 197.48C177.517 197.253 177.091 197.14 176.544 197.14C176.024 197.14 175.564 197.253 175.164 197.48C174.764 197.707 174.451 198.013 174.224 198.4C174.011 198.787 173.904 199.213 173.904 199.68V204.98C173.904 205.273 173.804 205.52 173.604 205.72C173.417 205.907 173.184 206 172.904 206C172.611 206 172.371 205.907 172.184 205.72C171.997 205.52 171.904 205.273 171.904 204.98V196.5C171.904 196.207 171.997 195.967 172.184 195.78C172.371 195.58 172.611 195.48 172.904 195.48C173.184 195.48 173.417 195.58 173.604 195.78C173.804 195.967 173.904 196.207 173.904 196.5V197.68L173.524 197.9C173.617 197.607 173.771 197.307 173.984 197C174.197 196.693 174.464 196.413 174.784 196.16C175.117 195.907 175.484 195.7 175.884 195.54C176.284 195.38 176.717 195.3 177.184 195.3ZM190.943 200.82C190.663 200.82 190.423 200.727 190.223 200.54C190.036 200.34 189.943 200.1 189.943 199.82C189.943 199.527 190.036 199.293 190.223 199.12C190.423 198.933 190.663 198.84 190.943 198.84H194.703C194.983 198.84 195.223 198.94 195.423 199.14C195.623 199.327 195.723 199.567 195.723 199.86C195.723 200.127 195.623 200.353 195.423 200.54C195.223 200.727 194.983 200.82 194.703 200.82H190.943ZM208.574 191.96C208.854 191.96 209.094 192.053 209.294 192.24C209.494 192.427 209.594 192.653 209.594 192.92C209.594 193.067 209.561 193.22 209.494 193.38L204.434 205.34C204.327 205.567 204.181 205.733 203.994 205.84C203.821 205.947 203.641 206 203.454 206C203.267 205.987 203.087 205.927 202.914 205.82C202.754 205.713 202.627 205.56 202.534 205.36L197.474 193.38C197.447 193.313 197.427 193.247 197.414 193.18C197.401 193.1 197.394 193.02 197.394 192.94C197.394 192.633 197.507 192.393 197.734 192.22C197.961 192.047 198.181 191.96 198.394 191.96C198.821 191.96 199.134 192.18 199.334 192.62L203.914 203.48H203.334L207.654 192.6C207.841 192.173 208.147 191.96 208.574 191.96ZM213.51 204.98C213.51 205.273 213.417 205.52 213.23 205.72C213.044 205.907 212.804 206 212.51 206C212.23 206 211.99 205.907 211.79 205.72C211.604 205.52 211.51 205.273 211.51 204.98V196.42C211.51 196.127 211.604 195.887 211.79 195.7C211.99 195.5 212.23 195.4 212.51 195.4C212.804 195.4 213.044 195.5 213.23 195.7C213.417 195.887 213.51 196.127 213.51 196.42V204.98ZM212.49 194.08C212.104 194.08 211.824 194.013 211.65 193.88C211.477 193.733 211.39 193.493 211.39 193.16V192.84C211.39 192.507 211.484 192.273 211.67 192.14C211.857 192.007 212.137 191.94 212.51 191.94C212.91 191.94 213.197 192.013 213.37 192.16C213.544 192.293 213.63 192.52 213.63 192.84V193.16C213.63 193.507 213.537 193.747 213.35 193.88C213.177 194.013 212.89 194.08 212.49 194.08ZM221.621 195.24C222.567 195.24 223.301 195.44 223.821 195.84C224.341 196.227 224.701 196.753 224.901 197.42C225.114 198.073 225.221 198.807 225.221 199.62V204.98C225.221 205.273 225.121 205.52 224.921 205.72C224.734 205.907 224.501 206 224.221 206C223.927 206 223.687 205.907 223.501 205.72C223.314 205.52 223.221 205.273 223.221 204.98V199.64C223.221 199.16 223.154 198.733 223.021 198.36C222.887 197.973 222.654 197.667 222.321 197.44C222.001 197.2 221.547 197.08 220.961 197.08C220.414 197.08 219.934 197.2 219.521 197.44C219.107 197.667 218.781 197.973 218.541 198.36C218.314 198.733 218.201 199.16 218.201 199.64V204.98C218.201 205.273 218.101 205.52 217.901 205.72C217.714 205.907 217.481 206 217.201 206C216.907 206 216.667 205.907 216.481 205.72C216.294 205.52 216.201 205.273 216.201 204.98V196.5C216.201 196.207 216.294 195.967 216.481 195.78C216.667 195.58 216.907 195.48 217.201 195.48C217.481 195.48 217.714 195.58 217.901 195.78C218.101 195.967 218.201 196.207 218.201 196.5V197.62L217.841 197.82C217.934 197.527 218.094 197.233 218.321 196.94C218.561 196.633 218.847 196.353 219.181 196.1C219.514 195.833 219.887 195.627 220.301 195.48C220.714 195.32 221.154 195.24 221.621 195.24ZM236.618 191.2C236.911 191.2 237.151 191.293 237.338 191.48C237.524 191.667 237.618 191.913 237.618 192.22V204.98C237.618 205.273 237.524 205.52 237.338 205.72C237.151 205.907 236.911 206 236.618 206C236.338 206 236.098 205.907 235.898 205.72C235.711 205.52 235.618 205.273 235.618 204.98V203.54L236.038 203.56C236.038 203.8 235.938 204.073 235.738 204.38C235.551 204.673 235.291 204.96 234.958 205.24C234.624 205.52 234.231 205.753 233.778 205.94C233.324 206.113 232.838 206.2 232.318 206.2C231.398 206.2 230.571 205.967 229.838 205.5C229.104 205.02 228.524 204.373 228.098 203.56C227.671 202.733 227.458 201.787 227.458 200.72C227.458 199.653 227.671 198.713 228.098 197.9C228.524 197.073 229.098 196.427 229.818 195.96C230.551 195.48 231.364 195.24 232.258 195.24C232.818 195.24 233.338 195.333 233.818 195.52C234.311 195.707 234.738 195.947 235.098 196.24C235.458 196.533 235.738 196.847 235.938 197.18C236.138 197.5 236.238 197.807 236.238 198.1L235.618 198.16V192.22C235.618 191.927 235.711 191.687 235.898 191.5C236.098 191.3 236.338 191.2 236.618 191.2ZM232.538 204.36C233.178 204.36 233.731 204.2 234.198 203.88C234.678 203.56 235.051 203.127 235.318 202.58C235.584 202.033 235.718 201.413 235.718 200.72C235.718 200.027 235.584 199.407 235.318 198.86C235.051 198.313 234.678 197.88 234.198 197.56C233.718 197.24 233.164 197.08 232.538 197.08C231.924 197.08 231.378 197.24 230.898 197.56C230.431 197.88 230.058 198.313 229.778 198.86C229.511 199.407 229.378 200.027 229.378 200.72C229.378 201.413 229.511 202.033 229.778 202.58C230.058 203.127 230.431 203.56 230.898 203.88C231.378 204.2 231.924 204.36 232.538 204.36ZM250.5 200.74C250.5 201.807 250.266 202.753 249.8 203.58C249.333 204.393 248.7 205.033 247.9 205.5C247.1 205.967 246.2 206.2 245.2 206.2C244.2 206.2 243.3 205.967 242.5 205.5C241.7 205.033 241.06 204.393 240.58 203.58C240.113 202.753 239.88 201.807 239.88 200.74C239.88 199.66 240.113 198.713 240.58 197.9C241.06 197.073 241.7 196.427 242.5 195.96C243.3 195.48 244.2 195.24 245.2 195.24C246.2 195.24 247.1 195.48 247.9 195.96C248.7 196.427 249.333 197.073 249.8 197.9C250.266 198.713 250.5 199.66 250.5 200.74ZM248.5 200.74C248.5 200.007 248.353 199.373 248.06 198.84C247.766 198.293 247.366 197.867 246.86 197.56C246.366 197.24 245.813 197.08 245.2 197.08C244.586 197.08 244.026 197.24 243.52 197.56C243.013 197.867 242.613 198.293 242.32 198.84C242.026 199.373 241.88 200.007 241.88 200.74C241.88 201.447 242.026 202.073 242.32 202.62C242.613 203.167 243.013 203.593 243.52 203.9C244.026 204.207 244.586 204.36 245.2 204.36C245.813 204.36 246.366 204.207 246.86 203.9C247.366 203.593 247.766 203.167 248.06 202.62C248.353 202.073 248.5 201.447 248.5 200.74ZM253.763 201.74C253.377 201.74 253.17 201.527 253.143 201.1L252.683 193.24C252.657 192.893 252.743 192.6 252.943 192.36C253.143 192.12 253.417 192 253.763 192C254.097 192 254.363 192.12 254.563 192.36C254.777 192.6 254.863 192.893 254.823 193.24L254.383 201.1C254.357 201.527 254.15 201.74 253.763 201.74ZM253.663 206C253.33 206 253.07 205.907 252.883 205.72C252.71 205.533 252.623 205.273 252.623 204.94V204.58C252.623 204.233 252.71 203.973 252.883 203.8C253.07 203.613 253.33 203.52 253.663 203.52H253.863C254.21 203.52 254.47 203.613 254.643 203.8C254.817 203.973 254.903 204.233 254.903 204.58V204.94C254.903 205.273 254.817 205.533 254.643 205.72C254.47 205.907 254.21 206 253.863 206H253.663Z" fill="#272343"/>
<rect x="52" y="469" width="259" height="49" rx="8" fill="#272343"/>
<path d="M117.464 484.8C118.365 484.8 119.206 485.06 119.986 485.58C120.783 486.1 121.425 486.802 121.91 487.686C122.395 488.57 122.638 489.558 122.638 490.65C122.638 491.725 122.395 492.704 121.91 493.588C121.425 494.472 120.783 495.183 119.986 495.72C119.206 496.24 118.365 496.5 117.464 496.5H112.68L112.94 496.032V501.414C112.94 501.865 112.801 502.246 112.524 502.558C112.247 502.853 111.883 503 111.432 503C110.999 503 110.643 502.853 110.366 502.558C110.089 502.246 109.95 501.865 109.95 501.414V486.386C109.95 485.935 110.097 485.563 110.392 485.268C110.704 484.956 111.085 484.8 111.536 484.8H117.464ZM117.464 493.536C117.793 493.536 118.114 493.397 118.426 493.12C118.738 492.843 118.998 492.487 119.206 492.054C119.414 491.603 119.518 491.135 119.518 490.65C119.518 490.147 119.414 489.679 119.206 489.246C118.998 488.813 118.738 488.466 118.426 488.206C118.114 487.929 117.793 487.79 117.464 487.79H112.628L112.94 487.322V493.952L112.654 493.536H117.464ZM126.916 503C126.465 503 126.093 502.853 125.798 502.558C125.503 502.246 125.356 501.865 125.356 501.414V490.676C125.356 490.225 125.503 489.853 125.798 489.558C126.093 489.246 126.465 489.09 126.916 489.09C127.367 489.09 127.739 489.246 128.034 489.558C128.329 489.853 128.476 490.225 128.476 490.676V493.12L128.294 491.378C128.485 490.962 128.727 490.598 129.022 490.286C129.334 489.957 129.681 489.688 130.062 489.48C130.443 489.255 130.851 489.09 131.284 488.986C131.717 488.882 132.151 488.83 132.584 488.83C133.104 488.83 133.537 488.977 133.884 489.272C134.248 489.567 134.43 489.913 134.43 490.312C134.43 490.884 134.283 491.3 133.988 491.56C133.693 491.803 133.373 491.924 133.026 491.924C132.697 491.924 132.393 491.863 132.116 491.742C131.856 491.621 131.553 491.56 131.206 491.56C130.894 491.56 130.573 491.638 130.244 491.794C129.932 491.933 129.637 492.158 129.36 492.47C129.1 492.782 128.883 493.172 128.71 493.64C128.554 494.091 128.476 494.628 128.476 495.252V501.414C128.476 501.865 128.329 502.246 128.034 502.558C127.739 502.853 127.367 503 126.916 503ZM149.539 496.058C149.539 497.479 149.219 498.736 148.577 499.828C147.953 500.903 147.104 501.743 146.029 502.35C144.972 502.957 143.785 503.26 142.467 503.26C141.15 503.26 139.954 502.957 138.879 502.35C137.822 501.743 136.973 500.903 136.331 499.828C135.707 498.736 135.395 497.479 135.395 496.058C135.395 494.637 135.707 493.389 136.331 492.314C136.973 491.222 137.822 490.373 138.879 489.766C139.954 489.142 141.15 488.83 142.467 488.83C143.785 488.83 144.972 489.142 146.029 489.766C147.104 490.373 147.953 491.222 148.577 492.314C149.219 493.389 149.539 494.637 149.539 496.058ZM146.419 496.058C146.419 495.174 146.237 494.411 145.873 493.77C145.527 493.111 145.05 492.6 144.443 492.236C143.854 491.872 143.195 491.69 142.467 491.69C141.739 491.69 141.072 491.872 140.465 492.236C139.876 492.6 139.399 493.111 139.035 493.77C138.689 494.411 138.515 495.174 138.515 496.058C138.515 496.925 138.689 497.687 139.035 498.346C139.399 498.987 139.876 499.49 140.465 499.854C141.072 500.218 141.739 500.4 142.467 500.4C143.195 500.4 143.854 500.218 144.443 499.854C145.05 499.49 145.527 498.987 145.873 498.346C146.237 497.687 146.419 496.925 146.419 496.058ZM159.42 483.76C159.801 483.76 160.174 483.812 160.538 483.916C160.902 484.02 161.205 484.193 161.448 484.436C161.691 484.661 161.812 484.965 161.812 485.346C161.812 485.779 161.682 486.126 161.422 486.386C161.179 486.629 160.893 486.75 160.564 486.75C160.408 486.75 160.174 486.715 159.862 486.646C159.55 486.559 159.247 486.516 158.952 486.516C158.519 486.516 158.181 486.611 157.938 486.802C157.713 486.993 157.557 487.218 157.47 487.478C157.383 487.721 157.34 487.937 157.34 488.128V501.414C157.34 501.865 157.193 502.246 156.898 502.558C156.603 502.853 156.231 503 155.78 503C155.329 503 154.957 502.853 154.662 502.558C154.367 502.246 154.22 501.865 154.22 501.414V488.154C154.22 486.923 154.653 485.883 155.52 485.034C156.387 484.185 157.687 483.76 159.42 483.76ZM159.706 489.35C160.122 489.35 160.469 489.489 160.746 489.766C161.023 490.026 161.162 490.364 161.162 490.78C161.162 491.196 161.023 491.543 160.746 491.82C160.469 492.08 160.122 492.21 159.706 492.21H152.816C152.4 492.21 152.053 492.08 151.776 491.82C151.499 491.543 151.36 491.196 151.36 490.78C151.36 490.364 151.499 490.026 151.776 489.766C152.053 489.489 152.4 489.35 152.816 489.35H159.706ZM166.57 501.414C166.57 501.865 166.423 502.246 166.128 502.558C165.833 502.853 165.461 503 165.01 503C164.559 503 164.187 502.853 163.892 502.558C163.597 502.246 163.45 501.865 163.45 501.414V490.676C163.45 490.225 163.597 489.853 163.892 489.558C164.187 489.246 164.559 489.09 165.01 489.09C165.461 489.09 165.833 489.246 166.128 489.558C166.423 489.853 166.57 490.225 166.57 490.676V501.414ZM164.984 487.4C164.395 487.4 163.979 487.305 163.736 487.114C163.493 486.923 163.372 486.585 163.372 486.1V485.606C163.372 485.103 163.502 484.765 163.762 484.592C164.039 484.401 164.455 484.306 165.01 484.306C165.617 484.306 166.041 484.401 166.284 484.592C166.527 484.783 166.648 485.121 166.648 485.606V486.1C166.648 486.603 166.518 486.949 166.258 487.14C165.998 487.313 165.573 487.4 164.984 487.4ZM168.958 500.842C168.785 500.599 168.707 500.287 168.724 499.906C168.742 499.525 168.967 499.195 169.4 498.918C169.678 498.745 169.972 498.675 170.284 498.71C170.596 498.727 170.9 498.883 171.194 499.178C171.697 499.681 172.226 500.071 172.78 500.348C173.335 500.625 174.028 500.764 174.86 500.764C175.12 500.747 175.406 500.712 175.718 500.66C176.03 500.591 176.299 500.452 176.524 500.244C176.767 500.019 176.888 499.681 176.888 499.23C176.888 498.849 176.758 498.545 176.498 498.32C176.238 498.095 175.892 497.904 175.458 497.748C175.042 497.592 174.574 497.445 174.054 497.306C173.517 497.15 172.962 496.977 172.39 496.786C171.836 496.595 171.324 496.353 170.856 496.058C170.388 495.746 170.007 495.339 169.712 494.836C169.418 494.333 169.27 493.701 169.27 492.938C169.27 492.071 169.513 491.335 169.998 490.728C170.484 490.121 171.108 489.653 171.87 489.324C172.65 488.995 173.465 488.83 174.314 488.83C174.852 488.83 175.415 488.899 176.004 489.038C176.594 489.159 177.157 489.367 177.694 489.662C178.232 489.939 178.682 490.312 179.046 490.78C179.237 491.04 179.35 491.352 179.384 491.716C179.419 492.08 179.254 492.409 178.89 492.704C178.63 492.912 178.327 493.007 177.98 492.99C177.634 492.955 177.348 492.834 177.122 492.626C176.828 492.245 176.429 491.941 175.926 491.716C175.441 491.491 174.878 491.378 174.236 491.378C173.976 491.378 173.69 491.413 173.378 491.482C173.084 491.534 172.824 491.664 172.598 491.872C172.373 492.063 172.26 492.375 172.26 492.808C172.26 493.207 172.39 493.527 172.65 493.77C172.91 493.995 173.257 494.186 173.69 494.342C174.141 494.481 174.618 494.619 175.12 494.758C175.64 494.897 176.169 495.061 176.706 495.252C177.244 495.443 177.738 495.694 178.188 496.006C178.639 496.318 179.003 496.725 179.28 497.228C179.558 497.713 179.696 498.337 179.696 499.1C179.696 499.984 179.436 500.738 178.916 501.362C178.396 501.986 177.746 502.463 176.966 502.792C176.186 503.104 175.389 503.26 174.574 503.26C173.552 503.26 172.529 503.087 171.506 502.74C170.484 502.376 169.634 501.743 168.958 500.842ZM181.501 500.842C181.328 500.599 181.25 500.287 181.267 499.906C181.285 499.525 181.51 499.195 181.943 498.918C182.221 498.745 182.515 498.675 182.827 498.71C183.139 498.727 183.443 498.883 183.737 499.178C184.24 499.681 184.769 500.071 185.323 500.348C185.878 500.625 186.571 500.764 187.403 500.764C187.663 500.747 187.949 500.712 188.261 500.66C188.573 500.591 188.842 500.452 189.067 500.244C189.31 500.019 189.431 499.681 189.431 499.23C189.431 498.849 189.301 498.545 189.041 498.32C188.781 498.095 188.435 497.904 188.001 497.748C187.585 497.592 187.117 497.445 186.597 497.306C186.06 497.15 185.505 496.977 184.933 496.786C184.379 496.595 183.867 496.353 183.399 496.058C182.931 495.746 182.55 495.339 182.255 494.836C181.961 494.333 181.813 493.701 181.813 492.938C181.813 492.071 182.056 491.335 182.541 490.728C183.027 490.121 183.651 489.653 184.413 489.324C185.193 488.995 186.008 488.83 186.857 488.83C187.395 488.83 187.958 488.899 188.547 489.038C189.137 489.159 189.7 489.367 190.237 489.662C190.775 489.939 191.225 490.312 191.589 490.78C191.78 491.04 191.893 491.352 191.927 491.716C191.962 492.08 191.797 492.409 191.433 492.704C191.173 492.912 190.87 493.007 190.523 492.99C190.177 492.955 189.891 492.834 189.665 492.626C189.371 492.245 188.972 491.941 188.469 491.716C187.984 491.491 187.421 491.378 186.779 491.378C186.519 491.378 186.233 491.413 185.921 491.482C185.627 491.534 185.367 491.664 185.141 491.872C184.916 492.063 184.803 492.375 184.803 492.808C184.803 493.207 184.933 493.527 185.193 493.77C185.453 493.995 185.8 494.186 186.233 494.342C186.684 494.481 187.161 494.619 187.663 494.758C188.183 494.897 188.712 495.061 189.249 495.252C189.787 495.443 190.281 495.694 190.731 496.006C191.182 496.318 191.546 496.725 191.823 497.228C192.101 497.713 192.239 498.337 192.239 499.1C192.239 499.984 191.979 500.738 191.459 501.362C190.939 501.986 190.289 502.463 189.509 502.792C188.729 503.104 187.932 503.26 187.117 503.26C186.095 503.26 185.072 503.087 184.049 502.74C183.027 502.376 182.177 501.743 181.501 500.842ZM197.788 501.414C197.788 501.865 197.641 502.246 197.346 502.558C197.051 502.853 196.679 503 196.228 503C195.777 503 195.405 502.853 195.11 502.558C194.815 502.246 194.668 501.865 194.668 501.414V490.676C194.668 490.225 194.815 489.853 195.11 489.558C195.405 489.246 195.777 489.09 196.228 489.09C196.679 489.09 197.051 489.246 197.346 489.558C197.641 489.853 197.788 490.225 197.788 490.676V501.414ZM196.202 487.4C195.613 487.4 195.197 487.305 194.954 487.114C194.711 486.923 194.59 486.585 194.59 486.1V485.606C194.59 485.103 194.72 484.765 194.98 484.592C195.257 484.401 195.673 484.306 196.228 484.306C196.835 484.306 197.259 484.401 197.502 484.592C197.745 484.783 197.866 485.121 197.866 485.606V486.1C197.866 486.603 197.736 486.949 197.476 487.14C197.216 487.313 196.791 487.4 196.202 487.4ZM214.489 496.058C214.489 497.479 214.168 498.736 213.527 499.828C212.903 500.903 212.053 501.743 210.979 502.35C209.921 502.957 208.734 503.26 207.417 503.26C206.099 503.26 204.903 502.957 203.829 502.35C202.771 501.743 201.922 500.903 201.281 499.828C200.657 498.736 200.345 497.479 200.345 496.058C200.345 494.637 200.657 493.389 201.281 492.314C201.922 491.222 202.771 490.373 203.829 489.766C204.903 489.142 206.099 488.83 207.417 488.83C208.734 488.83 209.921 489.142 210.979 489.766C212.053 490.373 212.903 491.222 213.527 492.314C214.168 493.389 214.489 494.637 214.489 496.058ZM211.369 496.058C211.369 495.174 211.187 494.411 210.823 493.77C210.476 493.111 209.999 492.6 209.393 492.236C208.803 491.872 208.145 491.69 207.417 491.69C206.689 491.69 206.021 491.872 205.415 492.236C204.825 492.6 204.349 493.111 203.985 493.77C203.638 494.411 203.465 495.174 203.465 496.058C203.465 496.925 203.638 497.687 203.985 498.346C204.349 498.987 204.825 499.49 205.415 499.854C206.021 500.218 206.689 500.4 207.417 500.4C208.145 500.4 208.803 500.218 209.393 499.854C209.999 499.49 210.476 498.987 210.823 498.346C211.187 497.687 211.369 496.925 211.369 496.058ZM224.655 488.83C225.938 488.83 226.909 489.099 227.567 489.636C228.243 490.173 228.703 490.893 228.945 491.794C229.205 492.678 229.335 493.666 229.335 494.758V501.414C229.335 501.865 229.188 502.246 228.893 502.558C228.599 502.853 228.226 503 227.775 503C227.325 503 226.952 502.853 226.657 502.558C226.363 502.246 226.215 501.865 226.215 501.414V494.758C226.215 494.186 226.137 493.675 225.981 493.224C225.843 492.756 225.583 492.383 225.201 492.106C224.82 491.829 224.274 491.69 223.563 491.69C222.87 491.69 222.281 491.829 221.795 492.106C221.327 492.383 220.963 492.756 220.703 493.224C220.461 493.675 220.339 494.186 220.339 494.758V501.414C220.339 501.865 220.192 502.246 219.897 502.558C219.603 502.853 219.23 503 218.779 503C218.329 503 217.956 502.853 217.661 502.558C217.367 502.246 217.219 501.865 217.219 501.414V490.676C217.219 490.225 217.367 489.853 217.661 489.558C217.956 489.246 218.329 489.09 218.779 489.09C219.23 489.09 219.603 489.246 219.897 489.558C220.192 489.853 220.339 490.225 220.339 490.676V491.794L219.949 491.716C220.105 491.421 220.331 491.109 220.625 490.78C220.92 490.433 221.267 490.113 221.665 489.818C222.064 489.523 222.515 489.289 223.017 489.116C223.52 488.925 224.066 488.83 224.655 488.83ZM244.096 488.83C244.546 488.83 244.919 488.977 245.214 489.272C245.508 489.567 245.656 489.948 245.656 490.416V501.414C245.656 501.865 245.508 502.246 245.214 502.558C244.919 502.853 244.546 503 244.096 503C243.645 503 243.272 502.853 242.978 502.558C242.683 502.246 242.536 501.865 242.536 501.414V500.14L243.108 500.374C243.108 500.599 242.986 500.877 242.744 501.206C242.501 501.518 242.172 501.83 241.756 502.142C241.34 502.454 240.846 502.723 240.274 502.948C239.719 503.156 239.112 503.26 238.454 503.26C237.258 503.26 236.174 502.957 235.204 502.35C234.233 501.726 233.462 500.877 232.89 499.802C232.335 498.71 232.058 497.462 232.058 496.058C232.058 494.637 232.335 493.389 232.89 492.314C233.462 491.222 234.224 490.373 235.178 489.766C236.131 489.142 237.188 488.83 238.35 488.83C239.095 488.83 239.78 488.943 240.404 489.168C241.028 489.393 241.565 489.679 242.016 490.026C242.484 490.373 242.839 490.728 243.082 491.092C243.342 491.439 243.472 491.733 243.472 491.976L242.536 492.314V490.416C242.536 489.965 242.683 489.593 242.978 489.298C243.272 488.986 243.645 488.83 244.096 488.83ZM238.844 500.4C239.606 500.4 240.274 500.209 240.846 499.828C241.418 499.447 241.86 498.927 242.172 498.268C242.501 497.609 242.666 496.873 242.666 496.058C242.666 495.226 242.501 494.481 242.172 493.822C241.86 493.163 241.418 492.643 240.846 492.262C240.274 491.881 239.606 491.69 238.844 491.69C238.098 491.69 237.44 491.881 236.868 492.262C236.296 492.643 235.845 493.163 235.516 493.822C235.204 494.481 235.048 495.226 235.048 496.058C235.048 496.873 235.204 497.609 235.516 498.268C235.845 498.927 236.296 499.447 236.868 499.828C237.44 500.209 238.098 500.4 238.844 500.4ZM252.414 501.414C252.414 501.865 252.258 502.246 251.946 502.558C251.651 502.853 251.278 503 250.828 503C250.394 503 250.03 502.853 249.736 502.558C249.441 502.246 249.294 501.865 249.294 501.414V485.346C249.294 484.895 249.441 484.523 249.736 484.228C250.048 483.916 250.429 483.76 250.88 483.76C251.33 483.76 251.694 483.916 251.972 484.228C252.266 484.523 252.414 484.895 252.414 485.346V501.414Z" fill="white"/>
</svg>
